<svg xmlns="http://www.w3.org/2000/svg" xmlns:xlink="http://www.w3.org/1999/xlink" width="1080" height="1080" style="width:100%;height:100%;transform:translate3d(0,0,0);content-visibility:visible"><defs><mask id="cn" mask-type="alpha"><use xlink:href="#a"/></mask><mask id="cl" mask-type="alpha"><g filter="url(#b)"><use xlink:href="#c"/></g></mask><mask id="ck" mask-type="alpha"><use xlink:href="#d"/></mask><mask id="cj" mask-type="alpha"><use xlink:href="#e"/></mask><mask id="ch" mask-type="alpha"><g filter="url(#f)"><use xlink:href="#g"/></g></mask><mask id="cf" mask-type="alpha"><use xlink:href="#h"/></mask><mask id="cd" mask-type="alpha"><g filter="url(#i)"><use xlink:href="#j"/></g></mask><mask id="cc" mask-type="alpha"><use xlink:href="#k"/></mask><mask id="cb" mask-type="alpha"><use xlink:href="#l"/></mask><mask id="bZ" mask-type="alpha"><g filter="url(#m)"><use xlink:href="#n"/></g></mask><mask id="bX" mask-type="alpha"><use xlink:href="#o"/></mask><mask id="bV" mask-type="alpha"><g filter="url(#p)"><use xlink:href="#q"/></g></mask><mask id="bU" mask-type="alpha"><use xlink:href="#r"/></mask><mask id="bT" mask-type="alpha"><use xlink:href="#s"/></mask><mask id="bR" mask-type="alpha"><g filter="url(#t)"><use xlink:href="#u"/></g></mask><mask id="bH" mask-type="alpha"><use xlink:href="#v"/></mask><mask id="bG" mask-type="alpha"><use xlink:href="#w"/></mask><mask id="bE" mask-type="alpha"><use xlink:href="#x"/></mask><mask id="bD" mask-type="alpha"><use xlink:href="#y"/></mask><mask id="bB" mask-type="alpha"><use xlink:href="#z"/></mask><mask id="bA" mask-type="alpha"><use xlink:href="#A"/></mask><mask id="by" mask-type="alpha"><use xlink:href="#B"/></mask><mask id="bx" mask-type="alpha"><use xlink:href="#C"/></mask><mask id="bu" mask-type="alpha"><use xlink:href="#D"/></mask><mask id="bv" mask-type="alpha"><use xlink:href="#E"/></mask><mask id="br" mask-type="alpha"><use xlink:href="#F"/></mask><mask id="bs" mask-type="alpha"><use xlink:href="#G"/></mask><mask id="bo" mask-type="alpha"><use xlink:href="#H"/></mask><mask id="bp" mask-type="alpha"><use xlink:href="#I"/></mask><mask id="bl" mask-type="alpha"><use xlink:href="#J"/></mask><mask id="bm" mask-type="alpha"><use xlink:href="#K"/></mask><mask id="bh" mask-type="alpha"><use xlink:href="#L"/></mask><mask id="bd" mask-type="alpha"><use xlink:href="#M"/></mask><mask id="aZ" mask-type="alpha"><use xlink:href="#N"/></mask><mask id="aX" mask-type="alpha"><use xlink:href="#O"/></mask><mask id="aW" mask-type="alpha"><use xlink:href="#P"/></mask><mask id="aV" mask-type="alpha"><use xlink:href="#Q"/></mask><mask id="aT" mask-type="alpha"><use xlink:href="#R"/></mask><mask id="aS" mask-type="alpha"><use xlink:href="#S"/></mask><mask id="aR" mask-type="alpha"><use xlink:href="#T"/></mask><mask id="aP" mask-type="alpha"><use xlink:href="#U"/></mask><mask id="aO" mask-type="alpha"><use xlink:href="#V"/></mask><mask id="aN" mask-type="alpha"><use xlink:href="#W"/></mask><mask id="aL" mask-type="alpha"><use xlink:href="#X"/></mask><mask id="aK" mask-type="alpha"><use xlink:href="#Y"/></mask><mask id="aJ" mask-type="alpha"><use xlink:href="#Z"/></mask><mask id="aG" mask-type="alpha"><use xlink:href="#aa"/></mask><mask id="aF" mask-type="alpha"><use xlink:href="#ab"/></mask><mask id="aE" mask-type="alpha"><use xlink:href="#ac"/></mask><mask id="aC" mask-type="alpha"><use xlink:href="#ad"/></mask><mask id="az" mask-type="alpha"><use xlink:href="#ae"/></mask><mask id="ay" mask-type="alpha"><use xlink:href="#af"/></mask><mask id="ax" mask-type="alpha"><use xlink:href="#ag"/></mask><mask id="av" mask-type="alpha"><use xlink:href="#ah"/></mask><mask id="as" mask-type="alpha"><use xlink:href="#ai"/></mask><mask id="ar" mask-type="alpha"><use xlink:href="#aj"/></mask><mask id="aq" mask-type="alpha"><use xlink:href="#ak"/></mask><mask id="ao" mask-type="alpha"><use xlink:href="#al"/></mask><clipPath id="am"><path d="M0 0h1080v1080H0z"/></clipPath><clipPath id="cg"><path d="M0 0h1920v1079H0z"/></clipPath><clipPath id="cm"><path d="M0 0h1920v1079H0z"/></clipPath><clipPath id="ci"><path d="M0 0h1920v1079H0z"/></clipPath><clipPath id="bY"><path d="M0 0h1920v1079H0z"/></clipPath><clipPath id="ce"><path d="M0 0h1920v1079H0z"/></clipPath><clipPath id="ca"><path d="M0 0h1920v1079H0z"/></clipPath><clipPath id="bQ"><path d="M0 0h1920v1079H0z"/></clipPath><clipPath id="bW"><path d="M0 0h1920v1079H0z"/></clipPath><clipPath id="bS"><path d="M0 0h1920v1079H0z"/></clipPath><clipPath id="bP"><path d="M0 0h1920v1079H0z"/></clipPath><clipPath id="bO"><path d="M0 0h1920v1079H0z"/></clipPath><clipPath id="bN"><path d="M0 0h1920v1079H0z"/></clipPath><clipPath id="bM"><path d="M0 0h1920v1079H0z"/></clipPath><clipPath id="bL"><path d="M0 0h1920v1079H0z"/></clipPath><clipPath id="bK"><path d="M0 0h1920v1079H0z"/></clipPath><clipPath id="bJ"><path d="M0 0h1920v1079H0z"/></clipPath><clipPath id="bI"><path d="M0 0h1920v1079H0z"/></clipPath><clipPath id="bF"><path d="M0 0h1920v1079H0z"/></clipPath><clipPath id="bC"><path d="M0 0h1920v1079H0z"/></clipPath><clipPath id="bz"><path d="M0 0h1920v1079H0z"/></clipPath><clipPath id="bw"><path d="M0 0h1920v1079H0z"/></clipPath><clipPath id="bt"><path d="M0 0h1920v1079H0z"/></clipPath><clipPath id="bq"><path d="M0 0h1920v1079H0z"/></clipPath><clipPath id="bn"><path d="M0 0h1920v1079H0z"/></clipPath><clipPath id="bk"><path d="M0 0h1920v1079H0z"/></clipPath><clipPath id="bg"><path d="M0 0h1920v1079H0z"/></clipPath><clipPath id="bi"><path d="M0 0h1920v1079H0z"/></clipPath><clipPath id="bc"><path d="M0 0h1920v1079H0z"/></clipPath><clipPath id="be"><path d="M0 0h1920v1079H0z"/></clipPath><clipPath id="aY"><path d="M0 0h1920v1079H0z"/></clipPath><clipPath id="ba"><path d="M0 0h1920v1079H0z"/></clipPath><clipPath id="aU"><path d="M0 0h1920v1079H0z"/></clipPath><clipPath id="aQ"><path d="M0 0h1920v1079H0z"/></clipPath><clipPath id="aM"><path d="M0 0h1920v1079H0z"/></clipPath><clipPath id="aI"><path d="M0 0h1920v1079H0z"/></clipPath><clipPath id="aB"><path d="M0 0h1920v1079H0z"/></clipPath><clipPath id="aH"><path d="M0 0h1920v1079H0z"/></clipPath><clipPath id="aD"><path d="M0 0h1920v1079H0z"/></clipPath><clipPath id="au"><path d="M0 0h1920v1079H0z"/></clipPath><clipPath id="aA"><path d="M0 0h1920v1079H0z"/></clipPath><clipPath id="aw"><path d="M0 0h1920v1079H0z"/></clipPath><clipPath id="an"><path d="M0 0h1920v1079H0z"/></clipPath><clipPath id="at"><path d="M0 0h1920v1079H0z"/></clipPath><clipPath id="ap"><path d="M0 0h1920v1079H0z"/></clipPath><path fill="#DB8D74" d="M521.5 303c-16.5 11-42 12.5-66 13.5s-53.834 22.53-51 52c2.5 26 27.5 43 54.5 43.5 30.012.556 61-2.5 100.5-24s36.5-55.5 23.5-77-45-19-61.5-8z" transform="rotate(-6 6207.043 -8631.536)" style="display:block" id="e"/><path fill="#DB8D74" d="M521.5 303c-16.5 11-42 12.5-66 13.5s-53.834 22.53-51 52c2.5 26 27.5 43 54.5 43.5 30.012.556 61-2.5 100.5-24s36.5-55.5 23.5-77-45-19-61.5-8z" transform="rotate(-6 6207.043 -8631.536)" style="display:block" id="l"/><path fill="#DB8D74" d="M482.763 275.603c-62.54 10.163-70.236 76.625-62.591 127.106 8.645 49.929 23.159 76.255 59.745 71.089 30.143-4.48 46.95-27.825 42.718-65.137-4.113-34.11 2.888-55.598 6.279-76.482 5.387-32.209-15.527-60.714-46.15-56.576z" transform="rotate(35.667 107.154 2195.246)" style="display:block" id="o"/><path fill="#DB8D74" d="M521.5 303c-16.5 11-42 12.5-66 13.5s-53.834 22.53-51 52c2.5 26 27.5 43 54.5 43.5 30.012.556 61-2.5 100.5-24s36.5-55.5 23.5-77-45-19-61.5-8z" transform="translate(975 551.5)" style="display:block" id="s"/><path fill="#FFCBA3" d="M208.585-408.855c-7.835-3.645-36.835-2.645-50.532 21.238-12.377 21.58-5.057 49.093 16.487 61.532 0 0 2.21 1.585 4.192 2.604C165-376.5 201.25-403.25 213.777-407.001c-1.277-.999-5.192-1.854-5.192-1.854z" transform="rotate(.02 -2326156.838 4082455.061)" style="display:block" id="v"/><path fill="#B23232" d="m181.611-391.64 1.47 3.198c1.386 3.013.04 6.561-3.004 7.925-3.045 1.363-6.635.025-8.02-2.989l-1.47-3.198c-1.386-3.014-.041-6.561 3.004-7.925 3.044-1.363 6.635-.026 8.02 2.988z" transform="rotate(.02 -2326156.838 4082455.061)" style="display:block" id="w"/><path fill="#FFCBA3" d="M208.585-408.855c-7.835-3.645-36.835-2.645-50.532 21.238-12.377 21.58-5.057 49.093 16.487 61.532 0 0 2.21 1.585 4.192 2.604C165-376.5 201.25-403.25 213.777-407.001c-1.277-.999-5.192-1.854-5.192-1.854z" transform="rotate(1.568 -20927.52 37851.114)" style="display:block" id="x"/><path fill="#B23232" d="m184.23-391.34 1.119 3.378c1.054 3.184-.808 6.524-4.159 7.46-3.35.936-6.92-.888-7.975-4.072l-1.118-3.378c-1.054-3.185.808-6.524 4.158-7.46 3.35-.936 6.921.887 7.975 4.071z" transform="rotate(1.568 -20927.52 37851.114)" style="display:block" id="y"/><path fill="#FFCBA3" d="M208.585-408.855c-7.835-3.645-36.835-2.645-50.532 21.238-12.377 21.58-5.057 49.093 16.487 61.532 0 0 2.21 1.585 4.192 2.604C165-376.5 201.25-403.25 213.777-407.001c-1.277-.999-5.192-1.854-5.192-1.854z" transform="rotate(.777 -42730.307 76224.605)" style="display:block" id="z"/><path fill="#B23232" d="m181.104-391.699 1.538 3.164a5.992 5.992 0 0 1-2.78 8.015 6.014 6.014 0 0 1-8.03-2.779l-1.538-3.163a5.992 5.992 0 0 1 2.78-8.015 6.014 6.014 0 0 1 8.03 2.778z" transform="rotate(.777 -42730.307 76224.605)" style="display:block" id="A"/><path fill="#FFCBA3" d="M208.585-408.855c-7.835-3.645-36.835-2.645-50.532 21.238-12.377 21.58-5.057 49.093 16.487 61.532 0 0 2.21 1.585 4.192 2.604C165-376.5 201.25-403.25 213.777-407.001c-1.277-.999-5.192-1.854-5.192-1.854z" transform="rotate(1.568 -20927.273 37851.03)" style="display:block" id="B"/><path fill="#B23232" d="m184.225-391.341 1.12 3.378c1.054 3.183-.807 6.524-4.156 7.46-3.35.938-6.921-.885-7.976-4.069l-1.12-3.378c-1.053-3.184.808-6.524 4.157-7.46 3.35-.938 6.921.884 7.975 4.069z" transform="rotate(1.568 -20927.273 37851.03)" style="display:block" id="C"/><path fill="#58CC02" d="M318.202-45.464c15.252 94.999-31.572 144.035-95.655 159.537-84.448 20.428-134.794-43.146-151.05-96.71C16-165.5 158.631-177.933 166.59-174.39a21.642 21.642 0 0 0 13.898 1.277c13.72-3.334 29.364-13.462 52.062-24.71 28.634-14.19 72.547 1.407 71.323 40.679 0 0 5.505 56.717 14.329 111.68zm-15 4c15.252 94.999-16.572 140.035-80.655 155.537-84.448 20.428-144.155-35.09-168.05-85.71C36.399-9.976 31.209-79.308 31.209-79.308c-2.443-42.408 8.57-88.445 47.15-106.222 17.568-8.095 35.66-11.367 49.816-6.28 21.939 7.884 30.456 13.877 38.415 17.42 4.363 1.942 127.788 77.963 136.612 132.926z" transform="rotate(-2.646 13776.4 -22136.3)" style="display:block" id="E"/><path fill="#58CC02" d="M318.202-45.464c15.252 94.999-31.572 144.035-95.655 159.537-84.448 20.428-134.794-43.146-151.05-96.71C16-165.5 158.631-177.933 166.59-174.39a21.642 21.642 0 0 0 13.898 1.277c13.72-3.334 29.364-13.462 52.062-24.71 28.634-14.19 72.547 1.407 71.323 40.679 0 0 5.505 56.717 14.329 111.68zm-15 4c15.252 94.999-16.572 140.035-80.655 155.537-84.448 20.428-144.155-35.09-168.05-85.71C36.399-9.976 31.209-79.308 31.209-79.308c-2.443-42.408 8.57-88.445 47.15-106.222 17.568-8.095 35.66-11.367 49.816-6.28 21.939 7.884 30.456 13.877 38.415 17.42 4.363 1.942 127.788 77.963 136.612 132.926z" transform="rotate(-2.989 12395.394 -19598.074)" style="display:block" id="G"/><path fill="#58CC02" d="M318.202-45.464c15.252 94.999-31.572 144.035-95.655 159.537-84.448 20.428-134.794-43.146-151.05-96.71C16-165.5 158.631-177.933 166.59-174.39a21.642 21.642 0 0 0 13.898 1.277c13.72-3.334 29.364-13.462 52.062-24.71 28.634-14.19 72.547 1.407 71.323 40.679 0 0 5.505 56.717 14.329 111.68zm-15 4c15.252 94.999-16.572 140.035-80.655 155.537-84.448 20.428-144.155-35.09-168.05-85.71C36.399-9.976 31.209-79.308 31.209-79.308c-2.443-42.408 8.57-88.445 47.15-106.222 17.568-8.095 35.66-11.367 49.816-6.28 21.939 7.884 30.456 13.877 38.415 17.42 4.363 1.942 127.788 77.963 136.612 132.926z" transform="rotate(-.389 87963.223 -151896.945)" style="display:block" id="I"/><path fill="#58CC02" d="M318.202-45.464c15.252 94.999-31.572 144.035-95.655 159.537-84.448 20.428-134.794-43.146-151.05-96.71C16-165.5 158.631-177.933 166.59-174.39a21.642 21.642 0 0 0 13.898 1.277c13.72-3.334 29.364-13.462 52.062-24.71 28.634-14.19 72.547 1.407 71.323 40.679 0 0 5.505 56.717 14.329 111.68zm-15 4c15.252 94.999-16.572 140.035-80.655 155.537-84.448 20.428-144.155-35.09-168.05-85.71C36.399-9.976 31.209-79.308 31.209-79.308c-2.443-42.408 8.57-88.445 47.15-106.222 17.568-8.095 35.66-11.367 49.816-6.28 21.939 7.884 30.456 13.877 38.415 17.42 4.363 1.942 127.788 77.963 136.612 132.926z" transform="rotate(-2.985 12394.635 -19619.16)" style="display:block" id="K"/><path fill="#FFC7B8" d="M552.811-154.957c-14.873-8.982-34.962-11.237-52.179-1.891l-28.256 15.339a51.11 51.11 0 0 0-25.616 34.316l-7.98 37.63C434.57-49.714 440-30 458.986-17.428 477.972-4.856 510.5 12 528.501 43.852c6.897 12.204 42.974 11.603 54.934 7.15l38.691-9.376A38.335 38.335 0 0 0 651.93 8.839l6.319-51.72c-.568-6.318-6.973-19.296-11.519-26.102C621-107.5 590-132.5 552.811-154.957z" transform="rotate(-6.966 5759.877 -7826.362)" style="display:block" id="L"/><path fill="#FFC7B8" d="M552.811-154.957c-14.873-8.982-34.962-11.237-52.179-1.891l-28.256 15.339a51.11 51.11 0 0 0-25.616 34.316l-7.98 37.63C434.57-49.714 440-30 458.986-17.428 477.972-4.856 510.5 12 528.501 43.852c6.897 12.204 42.974 11.603 54.934 7.15l38.691-9.376A38.335 38.335 0 0 0 651.93 8.839l6.319-51.72c-.568-6.318-6.973-19.296-11.519-26.102C621-107.5 590-132.5 552.811-154.957z" transform="rotate(-2.817 12651.286 -19795.623)" style="display:block" id="M"/><path fill="#FFC7B8" d="M552.811-154.957c-14.873-8.982-34.962-11.237-52.179-1.891l-28.256 15.339a51.11 51.11 0 0 0-25.616 34.316l-7.98 37.63C434.57-49.714 440-30 458.986-17.428 477.972-4.856 510.5 12 528.501 43.852c6.897 12.204 42.974 11.603 54.934 7.15l38.691-9.376A38.335 38.335 0 0 0 651.93 8.839l6.319-51.72c-.568-6.318-6.973-19.296-11.519-26.102C621-107.5 590-132.5 552.811-154.957z" transform="rotate(-6.966 5759.878 -7826.362)" style="display:block" id="N"/><path fill="#CC348D" d="M745.232-224.137c-.304-28.44 22.505-51.741 50.945-52.045 28.44-.304 51.741 22.506 52.045 50.946.304 28.44-22.505 51.74-50.945 52.044-28.44.304-51.741-22.505-52.045-50.945z" transform="rotate(-3.225 11773.017 -18195.726)" style="display:block" id="O"/><path fill="#0084C2" d="M732.862-124.382c4.759-25.473 29.266-42.264 54.739-37.505s42.265 29.265 37.506 54.738-29.266 42.265-54.739 37.506-42.265-29.266-37.506-54.739z" transform="rotate(3.225 -9135.546 18467.86)" style="display:block" id="P"/><path fill="#AFD5E0" d="M750.527-172.52c-2.856 6.832 153.036 310.917-59.97 264.614s1.1-278.504 4.916-287.632c3.816-9.128 19.234-11.375 34.437-5.019 15.203 6.356 24.433 18.909 20.617 28.037z" transform="rotate(-6.449 6505.285 -9054.674)" style="display:block" id="Q"/><path fill="#CC348D" d="M745.232-224.137c-.304-28.44 22.505-51.741 50.945-52.045 28.44-.304 51.741 22.506 52.045 50.946.304 28.44-22.505 51.74-50.945 52.044-28.44.304-51.741-22.505-52.045-50.945z" transform="rotate(-5.989 6934.078 -9712.103)" style="display:block" id="R"/><path fill="#0084C2" d="M732.862-124.382c4.759-25.473 29.266-42.264 54.739-37.505s42.265 29.265 37.506 54.738-29.266 42.265-54.739 37.506-42.265-29.266-37.506-54.739z" transform="rotate(5.989 -4300.438 9982.162)" style="display:block" id="S"/><path fill="#AFD5E0" d="M750.527-172.52c-2.856 6.832 153.036 310.917-59.97 264.614s1.1-278.504 4.916-287.632c3.816-9.128 19.234-11.375 34.437-5.019 15.203 6.356 24.433 18.909 20.617 28.037z" transform="rotate(-11.978 4080.432 -4797.177)" style="display:block" id="T"/><path fill="#CC348D" d="M745.232-224.137c-.304-28.44 22.505-51.741 50.945-52.045 28.44-.304 51.741 22.506 52.045 50.946.304 28.44-22.505 51.74-50.945 52.044-28.44.304-51.741-22.505-52.045-50.945z" transform="rotate(-.365 93862.697 -162180.212)" style="display:block" id="U"/><path fill="#0084C2" d="M732.862-124.382c4.759-25.473 29.266-42.264 54.739-37.505s42.265 29.265 37.506 54.738-29.266 42.265-54.739 37.506-42.265-29.266-37.506-54.739z" transform="rotate(.365 -91222.805 162453.621)" style="display:block" id="V"/><path fill="#AFD5E0" d="M750.527-172.52c-2.856 6.832 153.036 310.917-59.97 264.614s1.1-278.504 4.916-287.632c3.816-9.128 19.234-11.375 34.437-5.019 15.203 6.356 24.433 18.909 20.617 28.037z" transform="rotate(-.73 47535.55 -81038.185)" style="display:block" id="W"/><path fill="#CC348D" d="M745.232-224.137c-.304-28.44 22.505-51.741 50.945-52.045 28.44-.304 51.741 22.506 52.045 50.946.304 28.44-22.505 51.74-50.945 52.044-28.44.304-51.741-22.505-52.045-50.945z" transform="rotate(-5.989 6934.078 -9712.103)" style="display:block" id="X"/><path fill="#0084C2" d="M732.862-124.382c4.759-25.473 29.266-42.264 54.739-37.505s42.265 29.265 37.506 54.738-29.266 42.265-54.739 37.506-42.265-29.266-37.506-54.739z" transform="rotate(5.989 -4300.438 9982.162)" style="display:block" id="Y"/><path fill="#AFD5E0" d="M750.527-172.52c-2.856 6.832 153.036 310.917-59.97 264.614s1.1-278.504 4.916-287.632c3.816-9.128 19.234-11.375 34.437-5.019 15.203 6.356 24.433 18.909 20.617 28.037z" transform="rotate(-11.976 4080.956 -4798.09)" style="display:block" id="Z"/><path fill="#FFF" d="M638.033-169.849c-41.207 112.587-110.385 302.331-170.99 469.348-11.827 32.594-21.429 51.144-71.04 55.59-84.82 7.601-163.41 13.29-252.041 16.588-15.917.592-33.228-11.412-36.908-42.619-14.53-123.235-31.678-302.891-47.058-481.524-2.828-32.845 23.041-69.646 70.892-70.091 112.027-1.042 349.193-14.511 455.264-10.36 34.205 1.339 62.292 34.624 51.881 63.068z" transform="rotate(-145 914.887 215.665) scale(.5)" style="display:block" id="aa"/><path fill="#FFF" d="M615.125 597.383S518.546 449.096 506.719 481.69c-11.827 32.594-61.105-131.047-110.716-126.601-84.82 7.601-163.41 13.29-252.041 16.588-15.917.592-33.228-11.412-36.908-42.619-14.53-123.235-31.678-302.891-47.058-481.524-2.828-32.845 23.041-69.646 70.892-70.091 112.027-1.042 349.193-14.511 455.264-10.36 34.205 1.339 62.292 34.624 51.881 63.068C596.826-57.262 923.151 9.427 923.151 9.427s83.359 177.85 82.666 179.759c-.334.919-390.692 408.197-390.692 408.197z" transform="rotate(-145 914.887 215.665) scale(.5)" style="display:block" id="ad"/><path fill="#FFF" d="M412.599 78.212c-6.132 3.04-7.257 9.111-7.45 10.036l-2.078 9.955c-.804 3.852 1.678 7.626 5.543 8.43l7.348 1.528c7.924 1.648 15.683-3.417 17.331-11.313.495-2.371 3.308-16.424 3.308-16.424s-16.193-6.083-24.002-2.212zm-14.702-3.734c3.902 5.915 3.593 9.268 3.279 11.761-.411 3.262-1.961 10.655-1.961 10.655-.863 4.124-4.939 6.767-9.102 5.904l-7.271-1.508c-8.179-1.696-13.434-9.638-11.738-17.74.661-3.158 3.897-16.189 3.897-16.189s19.186 1.492 22.896 7.117z" transform="rotate(-.773 44097.058 -72757.563)" style="display:block" id="ab"/><path fill="#FFF" d="M412.599 78.212c-6.132 3.04-7.257 9.111-7.45 10.036l-2.078 9.955c-.804 3.852 1.678 7.626 5.543 8.43l7.348 1.528c7.924 1.648 15.683-3.417 17.331-11.313.495-2.371 3.308-16.424 3.308-16.424s-16.193-6.083-24.002-2.212zm-14.702-3.734c3.902 5.915 3.593 9.268 3.279 11.761-.411 3.262-1.961 10.655-1.961 10.655-.863 4.124-4.939 6.767-9.102 5.904l-7.271-1.508c-8.179-1.696-13.434-9.638-11.738-17.74.661-3.158 3.897-16.189 3.897-16.189s19.186 1.492 22.896 7.117z" transform="rotate(-.773 44097.058 -72757.563)" style="display:block" id="ac"/><path fill="#FFF" d="M638.033-169.849c-41.207 112.587-110.385 302.331-170.99 469.348-11.827 32.594-21.429 51.144-71.04 55.59-84.82 7.601-163.41 13.29-252.041 16.588-15.917.592-33.228-11.412-36.908-42.619-14.53-123.235-31.678-302.891-47.058-481.524-2.828-32.845 23.041-69.646 70.892-70.091 112.027-1.042 349.193-14.511 455.264-10.36 34.205 1.339 62.292 34.624 51.881 63.068z" transform="rotate(-145 914.887 215.665) scale(.5)" style="display:block" id="ae"/><path fill="#FFF" d="M615.125 597.383S518.546 449.096 506.719 481.69c-11.827 32.594-61.105-131.047-110.716-126.601-84.82 7.601-163.41 13.29-252.041 16.588-15.917.592-33.228-11.412-36.908-42.619-14.53-123.235-31.678-302.891-47.058-481.524-2.828-32.845 23.041-69.646 70.892-70.091 112.027-1.042 349.193-14.511 455.264-10.36 34.205 1.339 62.292 34.624 51.881 63.068C596.826-57.262 923.151 9.427 923.151 9.427s83.359 177.85 82.666 179.759c-.334.919-390.692 408.197-390.692 408.197z" transform="rotate(-145 914.887 215.665) scale(.5)" style="display:block" id="ah"/><path fill="#FFF" d="M412.599 78.212c-6.132 3.04-7.257 9.111-7.45 10.036l-2.078 9.955c-.804 3.852 1.678 7.626 5.543 8.43l7.348 1.528c7.924 1.648 15.683-3.417 17.331-11.313.495-2.371 3.308-16.424 3.308-16.424s-16.193-6.083-24.002-2.212zm-14.702-3.734c3.902 5.915 3.593 9.268 3.279 11.761-.411 3.262-1.961 10.655-1.961 10.655-.863 4.124-4.939 6.767-9.102 5.904l-7.271-1.508c-8.179-1.696-13.434-9.638-11.738-17.74.661-3.158 3.897-16.189 3.897-16.189s19.186 1.492 22.896 7.117z" transform="rotate(.048 -699136.663 1194140.256)" style="display:block" id="af"/><path fill="#FFF" d="M412.599 78.212c-6.132 3.04-7.257 9.111-7.45 10.036l-2.078 9.955c-.804 3.852 1.678 7.626 5.543 8.43l7.348 1.528c7.924 1.648 15.683-3.417 17.331-11.313.495-2.371 3.308-16.424 3.308-16.424s-16.193-6.083-24.002-2.212zm-14.702-3.734c3.902 5.915 3.593 9.268 3.279 11.761-.411 3.262-1.961 10.655-1.961 10.655-.863 4.124-4.939 6.767-9.102 5.904l-7.271-1.508c-8.179-1.696-13.434-9.638-11.738-17.74.661-3.158 3.897-16.189 3.897-16.189s19.186 1.492 22.896 7.117z" transform="rotate(.048 -699136.663 1194140.256)" style="display:block" id="ag"/><path fill="#FFF" d="M638.033-169.849c-41.207 112.587-110.385 302.331-170.99 469.348-11.827 32.594-21.429 51.144-71.04 55.59-84.82 7.601-163.41 13.29-252.041 16.588-15.917.592-33.228-11.412-36.908-42.619-14.53-123.235-31.678-302.891-47.058-481.524-2.828-32.845 23.041-69.646 70.892-70.091 112.027-1.042 349.193-14.511 455.264-10.36 34.205 1.339 62.292 34.624 51.881 63.068z" transform="rotate(-145 914.887 215.665) scale(.5)" style="display:block" id="ai"/><path fill="#FFF" d="M615.125 597.383S518.546 449.096 506.719 481.69c-11.827 32.594-61.105-131.047-110.716-126.601-84.82 7.601-163.41 13.29-252.041 16.588-15.917.592-33.228-11.412-36.908-42.619-14.53-123.235-31.678-302.891-47.058-481.524-2.828-32.845 23.041-69.646 70.892-70.091 112.027-1.042 349.193-14.511 455.264-10.36 34.205 1.339 62.292 34.624 51.881 63.068C596.826-57.262 923.151 9.427 923.151 9.427s83.359 177.85 82.666 179.759c-.334.919-390.692 408.197-390.692 408.197z" transform="rotate(-145 914.887 215.665) scale(.5)" style="display:block" id="al"/><path fill="#FFF" d="M412.599 78.212c-6.132 3.04-7.257 9.111-7.45 10.036l-2.078 9.955c-.804 3.852 1.678 7.626 5.543 8.43l7.348 1.528c7.924 1.648 15.683-3.417 17.331-11.313.495-2.371 3.308-16.424 3.308-16.424s-16.193-6.083-24.002-2.212zm-14.702-3.734c3.902 5.915 3.593 9.268 3.279 11.761-.411 3.262-1.961 10.655-1.961 10.655-.863 4.124-4.939 6.767-9.102 5.904l-7.271-1.508c-8.179-1.696-13.434-9.638-11.738-17.74.661-3.158 3.897-16.189 3.897-16.189s19.186 1.492 22.896 7.117z" transform="rotate(-5 7434.471 -10806.925)" style="display:block" id="aj"/><path fill="#FFF" d="M412.599 78.212c-6.132 3.04-7.257 9.111-7.45 10.036l-2.078 9.955c-.804 3.852 1.678 7.626 5.543 8.43l7.348 1.528c7.924 1.648 15.683-3.417 17.331-11.313.495-2.371 3.308-16.424 3.308-16.424s-16.193-6.083-24.002-2.212zm-14.702-3.734c3.902 5.915 3.593 9.268 3.279 11.761-.411 3.262-1.961 10.655-1.961 10.655-.863 4.124-4.939 6.767-9.102 5.904l-7.271-1.508c-8.179-1.696-13.434-9.638-11.738-17.74.661-3.158 3.897-16.189 3.897-16.189s19.186 1.492 22.896 7.117z" transform="rotate(-5 7434.471 -10806.925)" style="display:block" id="ak"/><filter id="b" filterUnits="objectBoundingBox" x="0%" y="0%" width="100%" height="100%"><feComponentTransfer in="SourceGraphic"><feFuncA type="table" tableValues="1.0 0.0"/></feComponentTransfer></filter><filter id="f" filterUnits="objectBoundingBox" x="0%" y="0%" width="100%" height="100%"><feComponentTransfer in="SourceGraphic"><feFuncA type="table" tableValues="1.0 0.0"/></feComponentTransfer></filter><filter id="i" filterUnits="objectBoundingBox" x="0%" y="0%" width="100%" height="100%"><feComponentTransfer in="SourceGraphic"><feFuncA type="table" tableValues="1.0 0.0"/></feComponentTransfer></filter><filter id="m" filterUnits="objectBoundingBox" x="0%" y="0%" width="100%" height="100%"><feComponentTransfer in="SourceGraphic"><feFuncA type="table" tableValues="1.0 0.0"/></feComponentTransfer></filter><filter id="p" filterUnits="objectBoundingBox" x="0%" y="0%" width="100%" height="100%"><feComponentTransfer in="SourceGraphic"><feFuncA type="table" tableValues="1.0 0.0"/></feComponentTransfer></filter><filter id="t" filterUnits="objectBoundingBox" x="0%" y="0%" width="100%" height="100%"><feComponentTransfer in="SourceGraphic"><feFuncA type="table" tableValues="1.0 0.0"/></feComponentTransfer></filter><g style="display:block" id="g"><path fill="#FFF" d="M638.033-169.849c-41.207 112.587 498.002-704.754 437.397-537.737-11.827 32.594-744.654 15.526-794.265 19.972-84.82 7.601-1090.514 743.028-1179.146 746.325-15.917.593 94.439 209.272 90.759 178.065-14.53-123.236 483.127-306.895 467.747-485.528-1.182-13.726 402.119 68.144 410.47 55.978 11.633-16.946 32.039-29.524 59.893-29.783 112.027-1.042 349.193-14.511 455.264-10.36 34.205 1.339 62.291 34.624 51.881 63.068z" transform="rotate(-145 914.887 215.665) scale(.5)"/><path fill-opacity="0" stroke="#9DEEC7" stroke-width="6.5" d="M1230.584 803.67C1279.75 769.375 824.5 949.5 897.22 898.474c14.192-9.958 309.445 207.2 331.04 219.606 36.92 21.212 659.74 8.42 696.987 32.488 6.69 4.322 21.337-112.796 13.894-98.96-29.391 54.642-285.89-12.858-330.821 64.717-3.453 5.96-145.156-143.233-152.065-140.645-9.625 3.604-21.59 2.904-33.072-4.979-46.183-31.7-147.183-94.2-189.437-126.32-13.625-10.359-15.583-32.046-3.162-40.71z"/></g><g style="display:block" id="d"><path fill="#DB8D74" d="M521.5 303c-16.5 11-42 12.5-66 13.5s-53.834 22.53-51 52c2.5 26 27.5 43 54.5 43.5 30.012.556 61-2.5 100.5-24s36.5-55.5 23.5-77-45-19-61.5-8z" transform="rotate(-6 6207.043 -8631.536)"/><path fill-opacity="0" stroke="#3D3D3D" stroke-width="2" d="M1486.56 848.357c-15.26 12.664-40.464 16.822-64.228 20.325-23.764 3.503-51.184 28.034-45.285 57.046 5.204 25.596 31.844 39.89 58.748 37.565 29.906-2.584 60.405-8.863 97.441-34.374 37.036-25.51 30.499-59.011 15.323-79.034-15.177-20.024-46.74-14.193-62-1.528z"/></g><g style="display:block" id="n"><path fill="#FFF" d="M638.033-169.849c-41.207 112.587 498.002-704.754 437.397-537.737-11.827 32.594-744.654 15.526-794.265 19.972-84.82 7.601-1090.514 743.028-1179.146 746.325-15.917.593 94.439 209.272 90.759 178.065-14.53-123.236 483.127-306.895 467.747-485.528-1.182-13.726 402.119 68.144 410.47 55.978 11.633-16.946 32.039-29.524 59.893-29.783 112.027-1.042 349.193-14.511 455.264-10.36 34.205 1.339 62.291 34.624 51.881 63.068z" transform="rotate(-145 914.887 215.665) scale(.5)"/><path fill-opacity="0" stroke="#9DEEC7" stroke-width="6.5" d="M1230.584 803.67C1279.75 769.375 824.5 949.5 897.22 898.474c14.192-9.958 309.445 207.2 331.04 219.606 36.92 21.212 659.74 8.42 696.987 32.488 6.69 4.322 21.337-112.796 13.894-98.96-29.391 54.642-285.89-12.858-330.821 64.717-3.453 5.96-145.156-143.233-152.065-140.645-9.625 3.604-21.59 2.904-33.072-4.979-46.183-31.7-147.183-94.2-189.437-126.32-13.625-10.359-15.583-32.046-3.162-40.71z"/></g><g style="display:block" id="k"><path fill="#DB8D74" d="M521.5 303c-16.5 11-42 12.5-66 13.5s-53.834 22.53-51 52c2.5 26 27.5 43 54.5 43.5 30.012.556 61-2.5 100.5-24s36.5-55.5 23.5-77-45-19-61.5-8z" transform="rotate(-6 6207.043 -8631.536)"/><path fill-opacity="0" stroke="#3D3D3D" stroke-width="2" d="M1486.56 848.357c-15.26 12.664-40.464 16.822-64.228 20.325-23.764 3.503-51.184 28.034-45.285 57.046 5.204 25.596 31.844 39.89 58.748 37.565 29.906-2.584 60.405-8.863 97.441-34.374 37.036-25.51 30.499-59.011 15.323-79.034-15.177-20.024-46.74-14.193-62-1.528z"/></g><g style="display:block" id="u"><path fill="#FFF" d="M638.033-169.849c-41.207 112.587 498.002-704.754 437.397-537.737-11.827 32.594-744.654 15.526-794.265 19.972-84.82 7.601-1090.514 743.028-1179.146 746.325-15.917.593 94.439 209.272 90.759 178.065-14.53-123.236 483.127-306.895 467.747-485.528-1.182-13.726 402.119 68.144 410.47 55.978 11.633-16.946 32.039-29.524 59.893-29.783 112.027-1.042 349.193-14.511 455.264-10.36 34.205 1.339 62.291 34.624 51.881 63.068z" transform="rotate(-145 914.887 215.665) scale(.5)"/><path fill-opacity="0" stroke="#9DEEC7" stroke-width="6.5" d="M1230.584 803.67C1279.75 769.375 824.5 949.5 897.22 898.474c14.192-9.958 309.445 207.2 331.04 219.606 36.92 21.212 659.74 8.42 696.987 32.488 6.69 4.322 21.337-112.796 13.894-98.96-29.391 54.642-285.89-12.858-330.821 64.717-3.453 5.96-145.156-143.233-152.065-140.645-9.625 3.604-21.59 2.904-33.072-4.979-46.183-31.7-147.183-94.2-189.437-126.32-13.625-10.359-15.583-32.046-3.162-40.71z"/></g><g style="display:block" id="r"><path fill="#DB8D74" d="M521.5 303c-16.5 11-42 12.5-66 13.5s-53.834 22.53-51 52c2.5 26 27.5 43 54.5 43.5 30.012.556 61-2.5 100.5-24s36.5-55.5 23.5-77-45-19-61.5-8z" transform="translate(975 551.5)"/><path fill-opacity="0" stroke="#3D3D3D" stroke-width="2" d="M1496.5 854.5c-16.5 11-42 12.5-66 13.5s-53.834 22.53-51 52c2.5 26 27.5 43 54.5 43.5 30.012.556 61-2.5 100.5-24s36.5-55.5 23.5-77-45-19-61.5-8z"/></g><linearGradient id="bj" spreadMethod="pad" gradientUnits="userSpaceOnUse" x1="475" y1="-110.003" x2="566.067" y2="-38.825"><stop offset="0%" stop-color="#FFA75F"/><stop offset="50%" stop-color="#FFB78B"/><stop offset="100%" stop-color="#FFC7B8"/></linearGradient><linearGradient id="bf" spreadMethod="pad" gradientUnits="userSpaceOnUse" x1="475" y1="-110.003" x2="566.067" y2="-38.825"><stop offset="0%" stop-color="#FFA75F"/><stop offset="50%" stop-color="#FFB78B"/><stop offset="100%" stop-color="#FFC7B8"/></linearGradient><linearGradient id="bb" spreadMethod="pad" gradientUnits="userSpaceOnUse" x1="475" y1="-110.003" x2="566.067" y2="-38.825"><stop offset="0%" stop-color="#FFA75F"/><stop offset="50%" stop-color="#FFB78B"/><stop offset="100%" stop-color="#FFC7B8"/></linearGradient></defs><g clip-path="url(#am)"><g clip-path="url(#au)" style="display:block" transform="matrix(-1 0 0 1 1916 -23.5)"><g style="display:block"><path fill="#58CC02" d="M1230.485 803.743c49.265-34.368 132.015-92.243 204.643-143.202 2.002-1.405 3.906-2.71 5.76-3.878 4.8-3.029 9.266-5.15 14.243-5.77 6.718-.835 14.365 1.067 25.027 7.176 36.967 21.181 70.905 41.494 108.168 65.572 4.658 3.01 6.174 7.172 6.757 10.689.983 5.927-.897 11.436-3.946 17.277-3.012 5.768-6.232 11.558-9.996 18.377C1550.5 825.5 1502 911.25 1472.57 961.824c-4.698 8.072-10.57 15.176-16.747 21.73-4.887 5.184-14.269 14.656-20.551 18.658-11.597 7.387-24.773 4.218-34.089-2.01C1359.001 972 1261.5 906.5 1219.247 875.38c-8.648-6.368-11.976-19.711-10.496-25.73 2.25-9.15 4.91-17.376 8.08-24.263 3.17-6.887 7.327-17.231 13.654-21.644z"/><path stroke="#58CC02" stroke-width="6.5" d="M1230.485 803.743c49.265-34.368 132.015-92.243 204.643-143.202 2.002-1.405 3.906-2.71 5.76-3.878 4.8-3.029 9.266-5.15 14.243-5.77 6.718-.835 14.365 1.067 25.027 7.176 36.967 21.181 70.905 41.494 108.168 65.572 4.658 3.01 6.174 7.172 6.757 10.689.983 5.927-.897 11.436-3.946 17.277-3.012 5.768-6.232 11.558-9.996 18.377C1550.5 825.5 1502 911.25 1472.57 961.824c-4.698 8.072-10.57 15.176-16.747 21.73-4.887 5.184-14.269 14.656-20.551 18.658-11.597 7.387-24.773 4.218-34.089-2.01C1359.001 972 1261.5 906.5 1219.247 875.38c-8.648-6.368-11.976-19.711-10.496-25.73 2.25-9.15 4.91-17.376 8.08-24.263 3.17-6.887 7.327-17.231 13.654-21.644z" fill="none"/><path fill="#FFF" d="M1230.584 803.67c49.166-34.295 131.916-92.17 204.637-143.195 14.192-9.958 23.444-14.802 45.039-2.395 36.92 21.212 70.74 41.42 107.987 65.488 6.69 4.322 10.337 14.203 2.894 28.04-29.391 54.642-73.89 133.142-118.821 210.717-8.262 14.263-29.411 21.917-49.137 8.376-46.183-31.7-147.183-94.2-189.437-126.32-13.625-10.359-15.583-32.046-3.162-40.71z"/><path stroke="#9DEEC7" stroke-width="6.5" d="M1230.584 803.67c49.166-34.295 131.916-92.17 204.637-143.195 14.192-9.958 23.444-14.802 45.039-2.395 36.92 21.212 70.74 41.42 107.987 65.488 6.69 4.322 10.337 14.203 2.894 28.04-29.391 54.642-73.89 133.142-118.821 210.717-8.262 14.263-29.411 21.917-49.137 8.376-46.183-31.7-147.183-94.2-189.437-126.32-13.625-10.359-15.583-32.046-3.162-40.71z" fill="none"/></g><g mask="url(#av)" style="display:block"><g clip-path="url(#aw)"><path fill="#A175F9" d="M313.521 147.25a4.98 4.98 0 0 1-2.476-6.573l35.505-79.229c12.52-26.807 39.038-43.041 67.437-37.268 27.928 5.677 46.166 30.165 46.598 59.638l2.639 84.235a4.994 4.994 0 0 1-4.581 5.127c-10.243.87-36.258 1.937-68.345-2.648-33.358-4.767-65.285-18.022-76.777-23.282z" transform="rotate(-2.041 17130.936 -27144.63)" style="display:block"/><g style="display:block"><path fill="#A570FF" d="M1338.459 765.345c3.188-6.782 13.643-9.59 20.424-6.402 6.782 3.188 12.623 14.3 9.435 21.082 0 0-7.125 18.499-13.415 29.585-5.532 9.75-13.53 20.838-13.53 20.838-6.299 7.203-11.272 9.695-18.053 6.507-6.782-3.189-9.696-11.271-6.507-18.054 0 0 6.408-13.266 10.712-23.915 4.304-10.65 10.934-29.641 10.934-29.641z"/><path fill="#593F86" d="M1338.459 765.345s8.893-30.234 11.952-56.57l36.249 6.89c-1.203 25.695-17.626 62.804-17.626 62.804-3.06 1.451-13.537 3.861-20.4.635-6.299-2.961-9.389-10.692-10.175-13.76z"/><path fill="#FFC6B7" d="M1388.267 763.61c-1.055 5.442-6.322 8.999-11.765 7.943-5.442-1.055-9-6.322-7.944-11.764 1.056-5.442 6.323-9 11.765-7.944 5.443 1.055 9 6.322 7.944 11.764z"/><path fill="#593F86" d="m1370.851 705.997-52.009 20.64c-12.27 4.869-10.69 22.716 2.245 25.353l78.13 15.928c12.973 2.645 21.402-13.247 11.936-22.505l-40.302-39.416z"/><path fill="#FFC6B7" d="M1363.857 736.612c-6.14-5.735-8.769-9.659-13.441-10.565-4.587-.889-9.039 1.505-10.96 5.536 5.007 1.041 17.203 3.545 24.4 5.029z"/></g><path fill="#FFC6B7" d="m450.232 91.603 4.291.88c6.08 1.246 9.998 7.024 8.752 12.907-1.246 5.883-7.186 9.642-13.266 8.396l-4.29-.88c-6.08-1.245-10-7.023-8.753-12.906 1.247-5.883 7.186-9.643 13.266-8.397zM416.72 32.314c24.256 5.058 40.846 27.56 38.541 52.277l-5.116 39.92c-2.524 13.181-12.859 21.445-25.152 20.885-12.066-.55-19.554-1.305-35.019-2.624-15.465-1.319-26.56-9.131-26.56-9.131-12.999-2.711-21.339-15.466-18.628-28.489a24.11 24.11 0 0 1 .936-3.302l13.566-37.444c8.519-23.515 32.991-37.189 57.432-32.092z" transform="rotate(1.959 -15968.37 29026.526)" style="display:block"/><path fill="#FFF" d="M412.599 78.212c-6.132 3.04-7.257 9.111-7.45 10.036l-2.078 9.955c-.804 3.852 1.678 7.626 5.543 8.43l7.348 1.528c7.924 1.648 15.683-3.417 17.331-11.313.495-2.371 3.308-16.424 3.308-16.424s-16.193-6.083-24.002-2.212zm-14.702-3.734c3.902 5.915 3.593 9.268 3.279 11.761-.411 3.262-1.961 10.655-1.961 10.655-.863 4.124-4.939 6.767-9.102 5.904l-7.271-1.508c-8.179-1.696-13.434-9.638-11.738-17.74.661-3.158 3.897-16.189 3.897-16.189s19.186 1.492 22.896 7.117z" transform="rotate(.048 -699136.663 1194140.256)" style="display:block"/><g mask="url(#ax)" style="display:block"><path fill="#3D3D3D" d="M1427.406 674.451c-.838 3.77-4.198 5.958-7.709 5.212-3.51-.747-5.704-4.297-5.005-7.916.699-3.618 1.908-9.769 1.908-9.769l12.946 2.086s-1.302 6.617-2.14 10.387zm-32.995-5.908c-.747 4.28-4.198 5.958-7.708 5.211-3.51-.746-5.646-4.523-5.006-7.915.656-3.475.667-2.72.667-2.72l12.502 2.153s.292-1.008-.455 3.27z"/></g><g mask="url(#ay)" style="display:block"><path fill="#A570FF" d="m1433.857 660.168-2.568 16.342-70.381-12.996 3.717-17.55 69.232 14.204z"/></g><path fill="#FFC6B7" d="M392.238 134.582a27.84 27.84 0 0 1 .557-7.168c3.172-15.155 18.137-24.871 33.426-21.7 4.08.846 7.06 2.538 9.233 4.487 5.034 4.515-43.121 26.188-43.216 24.381z" transform="rotate(.048 -699136.663 1194140.256)" style="display:block"/><path fill="#EE9583" d="M404.942 119.172c5.947-7.414 11.462-9.776 16.117-6.04.85.682.993 1.938.319 2.804a1.942 1.942 0 0 1-2.757.333c-2.469-1.981-5.872-.523-10.64 5.42a1.942 1.942 0 0 1-2.762.291 2.018 2.018 0 0 1-.277-2.808zm-7.456-4.456c3.258.67 6.439-1.349 7.106-4.511.667-3.162-3.654-11.853-3.654-11.853l-.905.784c-2.011 1.78-6.716 6.163-7.239 8.641-.667 3.162 1.434 6.268 4.692 6.939z" transform="rotate(1.959 -16138.303 29448.901)" style="display:block"/><path fill="#A570FF" d="M317.487 151.331c14.939-40.032 33.041-127.467 89.887-122.518.776.068 3.872.903 4.332 1.651 6.887 11.194-19.392 95.905-23.923 117.299-.547 2.583-2.975 3.862-5.614 3.912-18.096.34-50.446-.032-64.682-.344zM428.486 34.052c17.261 6.726 29.208 23.333 28.949 47.181 0 0-23.701-4.985-24.076-5.08-19.334-4.041-23.632-20.637-23.493-40.7l-7.242-6.418c8.329-.365 18.488 2.143 25.862 5.017z" transform="rotate(1.959 -15968.37 29026.526)" style="display:block"/></g></g><g mask="url(#az)" style="display:block"><g clip-path="url(#aA)"><path fill="#E6A000" d="M0-59.292c32.723 0 59.292 26.569 59.292 59.292S32.723 59.292 0 59.292-59.292 32.723-59.292 0-32.723-59.292 0-59.292z" transform="matrix(.38973 .12663 -.0618 .19021 1493.225 685.26)" style="display:block"/><g style="display:block"><path fill="#FFC700" d="M1479.054 669.314c9.753-2.106 24.531 2.008 33.007 9.188 8.475 7.18 7.44 14.708-2.315 16.814-9.753 2.106-24.531-2.007-33.007-9.188-8.475-7.18-7.439-14.708 2.315-16.814z"/><path fill="#FFE700" d="M1506.04 676.633a28.068 28.068 0 0 1 3.133 2.286c1.821 1.542 3.122 3.104 3.912 4.604.165.313-.197.356-.652.456-4.6 1.008-22.786 4.933-25.267 5.457-.34.072-.928.213-1.803-.188-2.292-1.052-4.25-2.435-5.976-3.898a19.501 19.501 0 0 1-2.538-2.554c-.142-.175-.415-.45.61-.672 4.43-.957 20.728-4.438 26.91-5.773.817-.177 1.297.045 1.672.282zm-24.7-5.462c5.383-1.163 12.583-.078 18.92 2.509.45.184 1.581.769.25 1.082-1.333.313-21.493 4.574-23.888 5.091-1.403.303-1.725-.438-1.795-.671-1.11-3.721 1.123-6.847 6.512-8.011z"/></g><path fill="#E6A000" d="M0-59.292c32.723 0 59.292 26.569 59.292 59.292S32.723 59.292 0 59.292-59.292 32.723-59.292 0-32.723-59.292 0-59.292z" transform="matrix(.4813 .24524 -.13166 .2584 1514.025 734.632)" style="display:block"/><g style="display:block"><path fill="#FFC700" d="M1499.117 709.767c13.434-1.32 31.865 7.007 41.167 18.597 9.302 11.59 5.953 22.057-7.48 23.377-13.434 1.32-31.865-7.007-41.167-18.597-9.302-11.59-5.953-22.057 7.48-23.377z"/><path fill="#FFE700" d="M1532.827 724.7a34.675 34.675 0 0 1 3.535 3.763c1.998 2.49 3.304 4.919 3.953 7.173.136.47-.354.47-.98.534-6.34.643-31.386 3.102-34.8 3.422-.468.043-1.283.143-2.332-.573-2.75-1.876-4.97-4.164-6.865-6.525-1.101-1.373-1.992-2.727-2.679-4.043-.142-.271-.43-.707.982-.846 6.102-.6 28.537-2.752 37.053-3.588 1.125-.111 1.7.283 2.133.682zm-31.18-11.92c7.415-.728 16.636 2.03 24.322 6.762.546.337 1.887 1.356.046 1.572-1.841.217-29.584 2.815-32.882 3.14-1.932.19-2.162-.914-2.193-1.255-.487-5.449 3.284-9.489 10.706-10.218z"/></g><path fill="#E6A000" d="M0-59.292c32.723 0 59.292 26.569 59.292 59.292S32.723 59.292 0 59.292-59.292 32.723-59.292 0-32.723-59.292 0-59.292z" transform="matrix(.6486 .38971 -.22476 .37406 1500.135 794.898)" style="display:block"/><g style="display:block"><path fill="#FFC700" d="M1482.475 757.503c19.29-1.18 44.282 12.171 55.821 29.82 11.54 17.65 5.256 32.914-14.034 34.095-19.29 1.18-44.282-12.171-55.821-29.82-11.54-17.65-5.256-32.914 14.034-34.095z"/><path fill="#FFE700" d="M1528.227 781.484a46.427 46.427 0 0 1 4.478 5.761c2.48 3.791 3.983 7.453 4.578 10.82.125.703-.572.674-1.472.732-9.107.587-45.072 2.785-49.973 3.061-.67.038-1.843.139-3.23-.98-3.636-2.926-6.46-6.434-8.81-10.029-1.367-2.09-2.437-4.14-3.222-6.123-.162-.409-.509-1.069 1.52-1.193 8.761-.536 40.97-2.43 53.198-3.18 1.616-.098 2.376.517 2.933 1.131zm-42.595-19.386c10.65-.651 23.358 3.948 33.597 11.378.727.528 2.484 2.11-.165 2.324-2.648.214-42.467 2.464-47.203 2.754-2.775.17-2.942-1.473-2.935-1.979.099-8.074 6.049-13.825 16.706-14.477z"/></g><path fill="#E6A000" d="M0-59.292c32.723 0 59.292 26.569 59.292 59.292S32.723 59.292 0 59.292-59.292 32.723-59.292 0-32.723-59.292 0-59.292z" transform="matrix(.68536 .4799 -.32116 .45866 1420.606 831.336)" style="display:block"/><g style="display:block"><path fill="#FFC700" d="M1406.454 784.874c22.482-1.404 49.164 15.042 59.597 36.735 10.432 21.692.663 40.415-21.819 41.82-22.482 1.404-49.164-15.043-59.597-36.735-10.432-21.692-.663-40.416 21.819-41.82z"/><path fill="#FFE700" d="M1455.376 814.418a47.284 47.284 0 0 1 4.228 7.082c2.24 4.66 3.377 9.157 3.511 13.292.028.863-.772.826-1.822.895-10.618.7-52.534 3.315-58.242 3.643-.78.044-2.152.165-3.572-1.21-3.72-3.602-6.406-7.914-8.531-12.332-1.236-2.57-2.135-5.088-2.716-7.525-.12-.502-.412-1.313 1.952-1.46 10.21-.638 47.738-2.89 61.989-3.78 1.883-.118 2.66.639 3.203 1.395zm-46.03-23.896c12.412-.776 26.34 4.9 36.949 14.044.754.65 2.524 2.596-.572 2.852-3.095.257-49.473 2.927-54.992 3.272-3.235.202-3.157-1.815-3.067-2.436 1.442-9.91 9.261-16.956 21.683-17.732z"/></g><path fill="#E6A000" d="M0-59.292c32.723 0 59.292 26.569 59.292 59.292S32.723 59.292 0 59.292-59.292 32.723-59.292 0-32.723-59.292 0-59.292z" transform="matrix(.81915 .57358 -.43018 .61436 1303.57 843.462)" style="display:block"/><g style="display:block"><path fill="#FFC700" d="M1289.189 784.783c28.033-3.338 60.076 16.103 71.57 43.422 11.493 27.32-1.915 52.173-29.948 55.511-28.033 3.339-60.076-16.102-71.57-43.422-11.493-27.32 1.915-52.173 29.948-55.511z"/><path fill="#FFE700" d="M1347.981 819.638a53.725 53.725 0 0 1 4.773 8.863c2.47 5.869 3.577 11.603 3.463 16.936-.023 1.113-1.016 1.12-2.325 1.28-13.243 1.624-65.508 7.844-72.623 8.654-.973.11-2.685.36-4.357-1.32-4.378-4.402-7.424-9.79-9.765-15.355-1.362-3.236-2.308-6.43-2.865-9.538-.115-.64-.423-1.669 2.524-2.02 12.733-1.516 59.52-6.969 77.29-9.085 2.347-.28 3.261.645 3.885 1.585zm-55.58-27.754c15.475-1.843 32.399 4.545 44.963 15.641.892.788 2.96 3.183-.904 3.724-3.864.542-61.677 7.135-68.56 7.954-4.032.48-3.8-2.13-3.645-2.939 2.463-12.903 12.658-22.536 28.146-24.38z"/></g></g></g><path stroke="#9DEEC7" stroke-width="13" d="M396.003 355.089c-84.82 7.601-163.41 13.29-252.041 16.588-15.917.592-33.228-11.412-36.908-42.619-14.53-123.235-31.678-302.891-47.058-481.524-2.828-32.845 23.041-69.646 70.892-70.091 112.027-1.042 349.193-14.511 455.264-10.36" fill="none" transform="rotate(-145 914.887 215.665) scale(.5)" style="display:block"/></g><g clip-path="url(#aM)" style="display:block" transform="matrix(-1 0 0 1 1976 -43.5)"><g style="display:block"><path stroke-linecap="round" stroke-miterlimit="10" stroke="#CC348D" stroke-width="23" d="M1751.626 384.47c-.193-15.16 30.923-13.355 47.42 5.183" fill="none"/><path fill="#C6775C" d="M1766.787 384.277c.107 8.373-6.595 15.247-14.968 15.354-8.374.107-15.247-6.594-15.354-14.968-.107-8.373 6.594-15.248 14.968-15.355 8.373-.106 15.248 6.596 15.354 14.97z"/><path fill="#5EC6FF" d="M1784.342 416.84c-3.7 9.176-19.088 11.62-34.37 5.457-15.283-6.161-24.673-18.596-20.973-27.772 3.7-9.176 20.349-24.334 38.957-16.831 18.742 7.557 20.085 29.97 16.386 39.146z"/><path fill="#0084C2" d="M1784.342 416.84c-3.7 9.176-19.088 11.62-34.37 5.457-15.283-6.161-24.673-18.596-20.973-27.772 3.7-9.176 19.087-11.619 34.37-5.457 15.283 6.162 24.672 18.596 20.973 27.772z"/><path fill="#FFCC76" d="M1763.37 389.068c-8.67-3.496-17.371-4.219-23.955-2.518-.44 5.747-2.987 12.355-3.583 13.947-.044.116-.11.224-.152.342-2.19 6.184.677 12.955 6.777 15.312 4.418 1.707 9.225.575 12.44-2.492a13.211 13.211 0 0 0 6.015 4.671c6.845 2.645 14.537-.76 17.181-7.603 1.285-3.326 2.507-5.523 3.936-7.39-3.643-5.597-10.257-10.88-18.66-14.269z"/></g><g mask="url(#aN)" style="display:block"><path stroke-linecap="round" stroke-miterlimit="10" stroke="#FFCC76" stroke-width="4.148" d="M1811.465 312.87c-15.411 4.785-37.726 25.784-29.057 31.323 8.669 5.538 21.165-23.586 44.602-14.866m-19.668 6.995c-12.028 5.104-21.38 18.396-34.66 37.634m36.078-31.63c-5.55 4.617-8.437 6.95-15.414 15.92-6.977 8.972-15.516 17.5-20.101 29.43" fill="none"/></g><path fill="#0084C2" d="M732.862-124.382c4.759-25.473 29.266-42.264 54.739-37.505s42.265 29.265 37.506 54.738-29.266 42.265-54.739 37.506-42.265-29.266-37.506-54.739z" transform="rotate(.365 -91222.805 162453.621)" style="display:block"/><g mask="url(#aO)" style="display:block"><path fill="#006AAD" d="M1858.272 507.251c-17.237-.213-34.41-1.513-50.815-16.842l-6.918.957c19.762 19.694 40.588 21.184 52.087 20.755a47.202 47.202 0 0 0 5.646-4.87z"/><path fill="#C6775C" d="M1790.629 420.25c3.262-16.298 19.068-26.906 35.387-23.75 16.393 3.172 27.113 19.031 23.942 35.426l-6.92 35.773c-.787 4.07-3.41 7.556-7.122 9.4-15.294 7.596-27.323 12.944-31.866 14.925-1.2.525-2.591.288-3.531-.625-8.806-8.548-14.422-18.675-16.987-23.95-1.13-2.325-1.358-4.955-.85-7.49l7.947-39.709z"/><path stroke-linecap="round" stroke="#FFF" stroke-width="20.813" d="m1792.74 462.046 1.98-8.588m21.271 13.612 1.208-6.254" fill="none"/><path stroke-linecap="round" stroke="#3D3D3D" stroke-width="9.4" d="M1814.149 464.565s-.924 2.57-.94 5.101m-19.502-10.844s-.274 3.31-1.492 5.666" fill="none"/><path fill="#FFF" d="M1788.502 462.623c1.775.747 2.807 3.294 1.93 5.037-3.601 7.544-9.678-7.119-1.93-5.037zm19.958 6.238c2.08.437 3.557 2.32 2.897 4.552-2.312 4.857-6.613-3.684-2.897-4.552z"/><path fill="#C6775C" d="M1795.248 450.882a6.295 6.295 0 1 1 12.32 2.578 6.295 6.295 0 0 1-12.32-2.578z"/></g><path stroke-linecap="round" stroke="#3D3D3D" stroke-width="46.998" d="M806.508-160.321c-17.756 5.031-37.78.251-40.643-7.859" fill="none" transform="translate(1033.657 589.255)" style="display:block"/><path fill="#FFF" d="m756.151-159.828.792-1.802a5.805 5.805 0 0 1 10.63 4.672l-.792 1.802a5.805 5.805 0 0 1-10.63-4.672z" transform="translate(1033.782 589.38)" style="display:block"/><path fill="#CC348D" d="M745.232-224.137c-.304-28.44 22.505-51.741 50.945-52.045 28.44-.304 51.741 22.506 52.045 50.946.304 28.44-22.505 51.74-50.945 52.044-28.44.304-51.741-22.505-52.045-50.945z" transform="rotate(-.365 93862.697 -162180.212)" style="display:block"/><path stroke-linecap="round" stroke-linejoin="round" stroke="#CC348D" stroke-width="23" d="M826.442-199.562s8.416 6.239 6.857 11.27c-3.756 12.125-33.453 15.5-33.453 15.5" fill="none" transform="rotate(-.365 93862.697 -162180.212)" style="display:block"/><g mask="url(#aP)" style="display:block"><path fill="#0084C2" d="M1765.353 349.608c3.415-24.713 19.962-46.748 61.781-47.333 41.82-.584 80.238 16.758 71.98 41.713-6.432 19.434-28.093 36.325-74.537 32.732-44.303-3.428-59.584-24.504-59.224-27.112z"/><path stroke="#00448E" stroke-width="11" d="M1765.353 349.608c3.415-24.713 19.962-46.748 61.781-47.333 41.82-.584 80.238 16.758 71.98 41.713-6.432 19.434-28.093 36.325-74.537 32.732-44.303-3.428-59.584-24.504-59.224-27.112z" fill="none"/></g><g style="display:block"><path stroke-linecap="round" stroke-linejoin="round" stroke="#0084C2" stroke-width="20" d="M1825.609 325.995s-31.808-17.91-40.57-28.208c4.456-11.348 21.868-26.634 31.43-36.47" fill="none"/><path stroke-linecap="round" stroke-linejoin="round" stroke="#CC348D" stroke-width="14" d="M1837.918 255.058c-1.043-5.912-4.266-13.047-7.52-16.646" fill="none"/></g><g style="display:block"><path stroke-linecap="round" stroke-linejoin="round" stroke="#0084C2" stroke-width="20" d="M1825.857 325.966s-55.778-.127-98.903-19.789" fill="none"/><path stroke-linecap="round" stroke-linejoin="round" stroke="#CC348D" stroke-width="14" d="M1709.368 290.054c-2.247 2.552-7.642 9.812-10.535 15.528" fill="none"/></g><g style="display:block"><path stroke-linecap="round" stroke-linejoin="round" stroke="#DAAF83" stroke-width="5" d="m1863.917 432.82-58.707-11.713m52.955 21.258-53.17-20.192" fill="none"/><path stroke-linecap="round" stroke-linejoin="round" stroke="#C6775C" stroke-width="9" d="m1831.902 426.643-10.572 5.243" fill="none"/><path fill="#C6775C" d="m1832.917 431.224 5.298-2.713a8.535 8.535 0 0 0 3.708-11.487l-2.4-4.687a8.534 8.534 0 0 0-11.487-3.707l-5.298 2.713a8.534 8.534 0 0 0-3.707 11.486l2.4 4.686a8.536 8.536 0 0 0 11.486 3.709z"/></g></g><g clip-path="url(#bc)" style="display:block" transform="matrix(-1 0 0 1 1916 -23.5)"><g style="display:block"><path stroke-linecap="round" stroke-linejoin="round" stroke="#FFC6B7" stroke-width="12" d="M1462.312 589.088c-1.619-3.417-10.1-6.848-16.08-8.273m-7.123 7.486c6.968 1.378 16.005 3.048 20.57 5.954m-20.685 8.135c10.475-2.93 17.382-1.678 21.96.167m-4.597 14.815s4.66-8.47 11.97-14.56" fill="none"/><path stroke-linecap="round" stroke-linejoin="round" stroke="#FFC6B7" stroke-width="36" d="M1490.116 588.727c-10.235 1.595-15.016 2.533-23.676 5.096" fill="none"/><path stroke-linecap="round" stroke-linejoin="round" stroke="#33E3FF" stroke-width="36" d="M1508.154 586.553c-8.979.159-20.216 2.324-29.036 4.266" fill="none"/></g><path fill="#33E3FF" d="M631.39-114.828c9.898-28.341-29.38-59.887-59.966-45.856-23.35 8.816-42.655 23.372-42.655 23.372-12.843 8.596 82.865 97.039 88.58 71.608 0 0 5.795-29.548 14.04-49.124z" transform="rotate(.774 -41121.306 72896.63)" style="display:block"/><path stroke-linecap="round" stroke="#393939" stroke-width="27" d="m683.25 34.5 4.25 3.5" fill="none" transform="rotate(-17.18 2931.405 -2923.133)" style="display:block"/><path stroke-linecap="round" stroke-linejoin="round" stroke="#393939" stroke-width="23" d="m613.75 94-8.25 3.75" fill="none" transform="rotate(-13.566 3365.741 -3748.608)" style="display:block"/><path fill="#FFC7B8" d="M552.811-154.957c-14.873-8.982-34.962-11.237-52.179-1.891l-28.256 15.339a51.11 51.11 0 0 0-25.616 34.316l-7.98 37.63C434.57-49.714 440-30 458.986-17.428 477.972-4.856 510.5 12 528.501 43.852c6.897 12.204 42.974 11.603 54.934 7.15l38.691-9.376A38.335 38.335 0 0 0 651.93 8.839l6.319-51.72c-.568-6.318-6.973-19.296-11.519-26.102C621-107.5 590-132.5 552.811-154.957z" transform="rotate(-2.817 12651.286 -19795.623)" style="display:block"/><path fill="#EE9583" d="M523.147-6.062c2.236 3.145 5.699 3.51 8.324 1.644 2.625-1.866 3.418-5.255 1.182-8.401-2.236-3.145-9.483-4.798-10.202-4.287-.718.51-1.54 7.899.696 11.044z" transform="rotate(-2.817 12641.675 -19792.518)" style="display:block"/><g style="display:block"><path fill="#FFF" d="M1490.376 543.48c-7.61-5.104-19.843-4.304-25.98 1.7-5.07 4.957-4.162 11.799 2.122 16.014l9.42 6.318c7.608 5.103 19.842 4.302 25.979-1.7 5.07-4.959 4.163-11.8-2.122-16.016l-9.42-6.316zm31.842-21.575c-7.579-5.084-18.89-3.668-25.033 3.132-5.93 6.563-4.827 15.712 2.489 20.618l8.616 5.779c7.58 5.084 18.891 3.667 25.035-3.132 5.93-6.564 4.825-15.712-2.49-20.619l-8.617-5.778z"/><path fill="#FFC7B8" d="M1536.814 532.102c-5.552 4.158-12.288 16.736-14.307 25.952l17.349-12.995c1.3-6.051 2.51-17.115-3.042-12.957z"/><path fill="#EE9583" d="M1531.91 550.674a2.223 2.223 0 0 0-1.933 2.476c.276 2.247.155 4.43-.591 6.47-.738 2.018-2.138 4.035-4.636 5.896a2.219 2.219 0 0 0-.453 3.106 2.22 2.22 0 0 0 3.107.455c3.134-2.336 5.093-5.036 6.153-7.931 1.05-2.872 1.164-5.8.828-8.538a2.221 2.221 0 0 0-2.475-1.934z"/><path fill="#4B4B4B" d="M1507.382 533.822a4.246 4.246 0 0 0 1.889 3.31c1.935 1.298 4.531.818 5.798-1.07a4.07 4.07 0 0 0 .33-.596l4.769 3.053c3.416 2.186 3.978 6.392 1.257 9.404-2.734 3.025-7.746 3.7-11.18 1.501l-5.799-3.711c-3.416-2.187-3.978-6.392-1.258-9.404 1.109-1.228 2.592-2.068 4.194-2.487zm-16.366 14.828c.164.094.325.196.482.301l4.988 3.344c3.682 2.469 4.254 6.467 1.346 9.402-2.53 2.554-7.691 2.92-10.896.771l-7.166-4.806c-3.057-2.048-3.532-5.365-1.118-7.802 1.075-1.085 2.551-1.835 4.176-2.233.229 1.08.89 2.101 1.919 2.791 1.992 1.336 4.608.928 5.841-.91a3.75 3.75 0 0 0 .428-.858z"/></g><g mask="url(#bd)" style="display:block"><g clip-path="url(#be)" transform="rotate(3.245 1594.89 639.884) scale(1.00759)"><g style="display:block"><path fill="#FFC7B8" d="M1531.072 472.95c5.547 1.538 10.722-2.436 11.558-8.872.835-6.437-2.985-12.9-8.532-14.438-5.547-1.538-10.722 2.436-11.557 8.872-.836 6.437 2.985 12.9 8.531 14.438z"/><path fill="#0084C2" d="M1476.51 610.578s56.633 59.035 75.738 52.288l84.852-53.299c15.31-5.119 16.846-112.947 8.034-122.726l-46.156-33.193-.192-.139-6.05-4.349-7.1 111.687-109.126 49.731z"/><path fill="#33E3FF" d="M1599.227 458.011c-6.193-5.901-32.26-23.432-32.26-23.432a89.37 89.37 0 0 1 2.122 5.235c15.96 43.123 4.178 106.142 2.463 109.162-15.069 26.531-97.039 53.239-102.455 51.97l17.197 15.416c27.382 2.193 90.182-24.41 102.765-40.754 10.975-14.252 13.347-94.227 10.168-117.597z"/></g><path fill="url(#bf)" d="M542.287-73.808a20.443 20.443 0 0 0-21.744-1.686l-66.346 34.981c-4.69 2.473-5.503 8.833-1.52 12.333 4.619 4.057 18.803 15.086 20.93 16.441 2.539 1.618 3.641 4.492 3.329 7.164L455.999 7.558C439.513-4.27 412.084-46.23 416.293-66.078c0 0 3.246-69.461 16.083-76.429 0 0 91.517-46.369 107.436-34.95l29.674 16.915 1.147.654-.456 92.437a8.424 8.424 0 0 1-7.201 8.168c-.631.092-20.689-14.525-20.689-14.525z" transform="rotate(-6.1 6395.181 -8836.617)" style="display:block"/></g></g><path fill="#FF9500" d="M470.937-93.332c12.917-.062 20.36-10.893 20.3-24.209-.059-13.316-7.599-24.074-20.516-24.012-12.917.061-21.552 10.897-21.492 24.214.06 13.316 8.791 24.069 21.708 24.007zm-3.115 36.24c14.552-1.206 25.292-14.726 23.989-30.195-1.304-15.47-14.157-27.032-28.71-25.823-14.551 1.208-25.292 14.726-23.988 30.195 1.303 15.47 14.157 27.031 28.709 25.824z" transform="rotate(21.693 -558.512 2759.66)" style="display:block"/><path fill="#33E3FF" d="M637.81-65.136C633.75-56 626.831-54.6 622.786-55.983c-5.465-1.15-9.63-7.729-9.02-16.257 1.234-17.26 7.984-33.01 13.266-43.535 4.773-9.512 15.718-11.975 22.54-8.794 6.779 3.161 12.82 11.1 7.698 20.625-6.02 11.194-15.4 29.672-19.46 38.808z" transform="rotate(.774 -41563.42 73050.217)" style="display:block"/><g style="display:block"><path fill="#FFC6B7" d="M1645.047 457.456c-5.157-8.298-15.17-11.769-24.716-6.24-8.411 4.873-11.879 14.863-6.247 23.58 5.138 7.952 15.206 11.313 24.63 5.982 9.58-5.41 11.49-15.024 6.333-23.322z"/><path stroke-linecap="round" stroke="#EE9583" stroke-width="3.796" d="M1628.432 461.753c3.205 1.814 6.094 5.807 5.764 8.328" fill="none"/><path stroke-linecap="round" stroke-linejoin="round" stroke="#FFC6B7" stroke-width="12" d="M1621.86 455.6c.184-4.17-1.025-8.286.491-12.054m20.167-2.294c-6.107.54-12.611 7.499-12.599 11.069m22.941-3.117c-4.173 1.071-14.844 4.51-15.107 10.467m17.291 2.8c-4.25-1.809-10.665 1.014-12.77 5.66" fill="none"/></g></g><g clip-path="url(#bn)" style="display:block" transform="matrix(-1 0 0 1 1976 -43.5)"><path fill="#58CC02" d="M303.202-41.464c15.252 94.999-16.572 140.035-80.655 155.537-84.448 20.428-144.155-35.09-168.05-85.71C36.399-9.976 31.151-76.68 31.155-80.117c-2.248-42.53 8.847-88.407 47.425-105.98 17.567-8.003 35.659-11.06 49.752-5.9 21.842 7.996 30.361 13.907 38.3 17.491 4.351 1.965 127.746 78.079 136.57 133.042zm15-4c15.252 94.999-31.572 144.035-95.655 159.537-84.448 20.428-134.794-43.146-151.05-96.71C16-165.5 158.693-178.09 166.632-174.506a21.638 21.638 0 0 0 13.888 1.352c13.736-3.26 29.465-13.358 52.258-24.38 28.793-13.918 72.342 1.777 71.369 41.048 0 0 5.231 56.059 14.055 111.022z" transform="rotate(-.389 87963.223 -151896.945)" style="display:block"/><path fill="#58CC02" d="M194.4-10.921c41.197 33.255 100.112 36.257 145.734 6.363 45.621-29.893 66.603-85.246 52.867-136.495-2.857-10.667-15.283-15.388-24.539-9.323L195.78-37.227c-9.256 6.065-9.954 19.384-1.38 26.306z" transform="rotate(7.268 -3860.44 8401.649)" style="display:block"/><path fill="#58CC02" d="M198.976.515c-26.37 45.909-80.206 70.027-133.554 58.669C12.074 47.826-27.518 3.817-33.258-48.93c-1.195-10.977 8.679-19.874 19.504-17.569L188.17-23.511C198.993-21.206 204.464-9.04 198.976.515z" transform="rotate(-8.046 4825.552 -7060.495)" style="display:block"/><path stroke-linecap="round" stroke-linejoin="round" stroke="#F49000" stroke-width="35" d="M256.25 102.5 260 74.75" fill="none" transform="rotate(1.174 -28026.848 50854.798)" style="display:block"/><path stroke-linecap="round" stroke-linejoin="round" stroke="#F49000" stroke-width="35" d="m138 147-27-7.75" fill="none" transform="rotate(2.738 -11692.403 22084.2)" style="display:block"/><g mask="url(#bp)" style="display:block"><path fill="#89E219" d="M1233.513 614.43c-.605 8.494-6.917 15.917-15.743 18.247-8.827 2.331-17.973-1.009-22.681-8.1-.98-1.476-.148-3.474 1.642-3.948l33.488-8.662c1.79-.472 3.42.696 3.294 2.464zm-57.995 14.205c-2.252 8.212-9.89 14.252-19.003 14.805-9.113.552-17.431-4.52-20.665-12.4-.673-1.639.533-3.436 2.382-3.548l34.491-2.092c1.849-.112 3.263 1.526 2.795 3.235zm34.874 18.953c-1.457 8.363-8.485 15.087-17.502 16.51-9.018 1.42-17.783-2.813-21.755-10.32-.826-1.56.203-3.46 2.032-3.748l34.054-5.442c1.83-.289 3.474 1.26 3.17 3zm22.843-68.396c-22.277 1.34-42.26-10.745-52.04-29.277-8.178.462-14.107.788-17.777.998-6.519.377-11.858.692-16.007.943-5.588 19.504-18.36 33.34-35.817 34.694-20.565 1.596-41.173-22.265-43.652-52.428-1.871-22.774-2.151-34.022-.555-46.276 1.714-13.15 6.6-22.626 14.05-29.486.409-11.91 9.292-21.936 13.682-22.187 2.47-.141 2.47.625 2.307 13.964 4.291-17.83 12.968-23.52 16.957-26.71 4.998-3.992 10.995-6.075 11.47 2.144.242 3.91 3.986 47.34 28.777 48.12 2.34.074 3.84.07 6.789-.238 15.374-1.605 44.353-34.224 55.631-47.642 7.018-8.349 11.552-6.81 13.32-4.176 4.025 5.979 5.502 12.26 4.64 18.651l9.417-11.974c1.854-2.345 5.454-2.225 7.12.25 4.338 6.438 6.159 14.073 5.45 21.564 14.834 9.07 25.137 25.01 26.267 43.686l1.634 27.084c1.832 30.363-21.298 56.465-51.663 58.296z"/></g><g style="display:block"><path fill="#F49000" d="M1188.085 548.389c-.64-10.602-9.752-18.678-20.354-18.038-10.006.603-17.869 8.79-18.07 18.81l-.569 29.976c-.24 11.937 9.757 21.539 21.675 20.82 11.272-.68 19.858-10.37 19.178-21.641l-1.86-29.927z"/><path fill="#B16900" d="M1181.28 550.396c.198-8.205-6.665-14.824-14.858-14.33-7.27.44-12.994 6.374-13.17 13.655l-.662 28.858c-.198 8.205 6.665 14.824 14.858 14.33 7.27-.44 12.993-6.373 13.169-13.655l.663-28.858z"/><path fill="#FFB8D1" d="M1181.03 562.297c-.168.006-.337.015-.505.025-12.63.762-22.252 11.618-21.49 24.248.096 1.583.35 3.118.747 4.592a13.93 13.93 0 0 0 7.67 1.747c7.271-.44 12.994-6.374 13.17-13.656l.408-16.956z"/><path fill="#FFC200" d="M1136.696 551.604c-.131.741.309 1.457 1.018 1.713l10.222 3.493 41.239-6.916c.923-.16 1.519-1.074 1.231-1.966-3.79-11.761-15.163-19.974-28.067-19.197-13.06.788-23.462 10.53-25.643 22.873z"/><path fill="#FFDE00" d="M1166.177 540.25c2.1.802 4.393-.324 5.149-2.41.756-2.088-.276-4.538-2.41-5.15-4.165-1.192-9.29-1.116-13.384.715-2.027.906-2.985 3.237-2.11 5.278.874 2.04 3.222 2.95 5.277 2.11 1.762-.72 5.38-1.346 7.478-.544z"/></g><g style="display:block"><path fill="#FFF" d="M1266.376 518.826c1.274 21.122-14.816 39.277-35.938 40.55-21.121 1.275-39.276-14.814-40.55-35.936l-1.298-21.513c-1.274-21.121 14.816-39.276 35.937-40.55 21.122-1.274 39.277 14.815 40.55 35.937l1.299 21.512zm-129.488 7.81c1.275 21.122-10.822 39.037-27.02 40.013-16.194.977-30.358-15.353-31.632-36.474l-1.298-21.513c-1.274-21.121 10.824-39.035 27.019-40.012 16.197-.977 30.36 15.353 31.633 36.475l1.298 21.511z"/><path fill="#4B4B4B" d="M1102.534 527.296c.677 9.898 7.567 17.48 15.386 16.949 7.829-.532 13.616-8.987 12.939-18.885l-1.302-19.107c-12.562 6.364-20.238-10.555-11.705-16.748-.66-.279-2.561-.424-3.68-.21-9.656 1.846-13.67 11.426-12.648 23.264.826 9.488 1.01 14.737 1.01 14.737zm94.823-6.386c.237 9.91 8.478 17.757 18.388 17.51 9.919-.247 17.757-8.478 17.52-18.397l-.472-19.149c-13.556 5.247-19.056-9.729-14.826-17.25a18.312 18.312 0 0 0-3.571-.26c-1.91.045-3.75.39-5.458.984-9.849 3.997-12.08 14.963-11.95 21.793.138 6.84.37 14.769.37 14.769z"/><path fill="#8EDF00" d="M1104.16 461.3c-25.975 1.95-30.183 15.443-31.188 23.549-2.119 17.08 2.273-.996 2.273-.996 16.682-25.659 47.755-24.663 65.153 12.047 4.194-20.403-.365 1.173-2.626-13.457-2.26-14.63-15.103-22.534-33.611-21.144zm-19.531 107.718c6.106 2.93 8.367 7.174 22.946 9.983 14.578 2.808 10.937 2.872 13.188 3.219-3.756-2.093-29.778-10.023-36.134-13.202zm140.357-112.185c-30.95-.22-41.102 20.596-40.519 37.824.584 17.227.375 1.252.375 1.252 7.555-48.986 60.056-48.628 81.264-17.591-.145-8.048 2.823 21.602 1.18 6.82-1.641-14.78-20.246-28.149-42.3-28.305zm-4.617 115.14c-12.639-1.841-16.64-2.58 7.302 1.835 19.279 3.555 31.805-5.316 40.843-16.491-5.55 6.416-25.775 15.97-48.145 14.657z"/></g></g><g clip-path="url(#bz)" style="display:block" transform="matrix(-1 0 0 1 1976 -43.5)"><path fill="#FFCBA3" d="M201.62-329.463c6.881 0 12.46 5.639 12.46 12.595s-5.579 12.595-12.46 12.595c-6.882 0-12.461-5.639-12.461-12.595s5.579-12.595 12.46-12.595z" transform="rotate(.777 -34640.048 74251)" style="display:block"/><path fill="#FFB100" d="M216.977-322.097c-8.788-3.072-14.057 1.041-16.19 5.96-2.133 4.92-.987 12.69 7.269 15.918 8.256 3.23 26.261 12.77 37.532 20.612 4.325 3.008 12.191 2.683 16.206-3.845 4.014-6.528-.139-13.335-4.199-16.567-8.21-6.535-31.829-19.007-40.618-22.078z" transform="rotate(.777 -34640.298 74287.878)" style="display:block"/><path fill="#3D3D3D" d="M179.633-308.08c0 9.562-7.753 17.314-17.315 17.314-9.562 0-17.314-7.752-17.314-17.314 0-9.562 7.752-17.315 17.314-17.315 9.562 0 17.315 7.753 17.315 17.315zm-23.63-15.603c-13.512-11.937-14.788-32.569-2.85-46.08l22.651-26.694c11.937-13.512 32.567-14.788 46.08-2.85 14.325 12.657 14.76 34.86.938 48.067l-.997.597a94.765 94.765 0 0 0-10.584 11.98l-7.422 9.987c-11.403 15.344-33.49 17.65-47.817 4.993z" transform="rotate(.777 -42730.556 76261.478)" style="display:block"/><path fill="#E89665" d="M170.119-403.653c2.087.944 3.005 3.418 2.051 5.527-.954 2.109-6.986 5.386-6.986 5.386s-1.522-6.695-.568-8.804c.954-2.108 3.417-3.052 5.503-2.109z" transform="rotate(-2.12 16561.332 -27988.205)" style="display:block"/><path fill="#FFCBA3" d="M219.585-404.105c-21.544-12.439-49.093-5.057-61.532 16.488-12.439 21.545-5.057 49.093 16.487 61.532l29.192 16.854 45.045-78.02-29.192-16.854z" transform="rotate(.777 -42729.312 76222.509)" style="display:block"/><g style="display:block"><path fill="#FFB100" d="M1222.442 203.952c-20.511 27.19-22.154 90.945 46.482 114.825l35.983-57.014 34.432-61.464c-52.462-29.788-90.86-30.861-116.897 3.653z"/><path fill="#FFF" d="M1258.084 198.811c2.067 2.096 1.787 5.725-.626 8.105-2.414 2.38-6.045 2.61-8.113.514-2.068-2.096-1.787-5.724.626-8.105 2.414-2.38 6.045-2.61 8.113-.514zm-31.156-8.153c23.926 11.584 44.161-9.06 37.458-12.466-3.965.188-9.562 2.083-14.326 3.59-9.7-1.15-18.055 3.682-23.132 8.876zm-15.601 30.595c17.562 7.094 41.723-21.176 23.326-32.386-5.071 2.995-18.734 14.935-23.326 32.386z"/><path fill="#FF9500" d="M1287.02 249.298c-19.508 32.756-27.864 63.71-18.521 69.275 9.342 5.564 32.631-16.52 52.14-49.277 19.51-32.757 27.85-63.781 18.507-69.345-9.342-5.565-32.617 16.59-52.125 49.347zm-36.91-67.52c16.82 1.13 38.8 8.803 54.918 17.232a7.99 7.99 0 0 0 8.163-.467c2.9-1.946 7.065-4.503 11.514-6.084-30.363-14.893-54.826-18.532-74.595-10.681zm-35.24 36.082c-10.38 26.913-6.198 67.912 33.686 91.567-3.859-14.816 8.517-46.139 14.388-59.87 1.63-3.812.093-8.237-3.56-10.199-9.918-5.326-29.37-15.51-44.515-21.498z"/></g><path fill="#FFCBA3" d="M208.585-408.855c-7.835-3.645-36.835-2.645-50.532 21.238-12.377 21.58-5.057 49.093 16.487 61.532 0 0 2.21 1.585 4.192 2.604C165-376.5 201.25-403.25 213.777-407.001c-1.277-.999-5.192-1.854-5.192-1.854z" transform="rotate(.777 -42730.307 76224.605)" style="display:block"/><g style="display:block"><path fill="#9F9F9F" d="M1188.761 209.445c-5.54 16.314-1.463 34.955 10.763 46.997 4.25-18.074.23-38.184-10.763-46.997z"/><path fill="#B23232" d="m1215.864 197.102 1.495 3.184c1.409 3 .115 6.571-2.89 7.977a6.014 6.014 0 0 1-7.99-2.887l-1.495-3.184a5.992 5.992 0 0 1 2.889-7.977 6.014 6.014 0 0 1 7.991 2.887z"/></g><g mask="url(#bA)" style="display:block"><path fill="#F14C4C" d="M1211.43 202.483a6.501 6.501 0 0 1 5.629 3.435 6 6 0 0 1-10.597-.493l-.23-.488a6.495 6.495 0 0 1 5.199-2.454z"/></g><g mask="url(#bB)" style="display:block"><path fill="#FFF" d="M1194.74 178.663c2.648-4.629 5.875-7.764 7.205-7.003.05.028 1.743 1.024 1.791 1.051 1.27.726.03 5.203-2.522 9.662-2.551 4.46-5.783 7.798-7.052 7.072l-1.808-1.02c-1.331-.762-.263-5.133 2.386-9.762zm-11.987 21.085c2.648-4.629 5.874-7.764 7.205-7.003l1.792 1.05c1.269.726.029 5.203-2.523 9.663s-5.783 7.797-7.051 7.071c-.049-.027-1.76-.993-1.81-1.02-1.33-.762-.262-5.132 2.387-9.761z"/><path fill="#4B4B4B" d="M1184.54 197.755c1.27-2.217 2.815-3.72 3.452-3.355.024.014 1.237.632 1.26.645.608.348.014 2.494-1.208 4.63-1.222 2.136-2.77 3.734-3.378 3.387-.023-.014-1.245-.618-1.269-.63 2.001-2.43 2.641-5.011 1.143-4.677zm9.35-16.508c1.27-2.217 2.815-3.72 3.453-3.355.023.014 1.237.632 1.26.645.608.348.013 2.493-1.209 4.63-1.222 2.135-2.77 3.735-3.378 3.387-.023-.013-1.245-.617-1.269-.63 2.002-2.43 2.641-5.011 1.144-4.677z"/><path stroke-linecap="round" stroke-linejoin="round" stroke="#E89665" stroke-width="3" d="m-50.353 5.574 8.892 4.251-8.985 3.287m74.943-6.57L17.39 8.811l8.055 3.69" fill="none" transform="matrix(.43185 -.75476 .217 .12416 1196.575 180.812)"/></g><path fill="#FFCBA3" d="M200.754-329.058c6.921 0 12.533 5.671 12.533 12.667 0 6.997-5.612 12.668-12.533 12.668-6.921 0-12.533-5.671-12.533-12.668 0-6.996 5.612-12.667 12.533-12.667z" transform="rotate(.777 -38968.027 70717.992)" style="display:block"/><path fill="#FFB100" d="M214.202-324.902c-9.254-1.46-13.677 3.578-14.895 8.832-1.218 5.254 1.242 12.72 9.997 14.432 8.754 1.711 28.488 7.876 40.997 13.495 4.81 2.157 12.492.41 15.247-6.752 2.755-7.16-2.578-13.099-7.167-15.536-9.277-4.928-34.926-13.012-44.18-14.471z" transform="rotate(.777 -39005.404 70791.503)" style="display:block"/><path stroke-linecap="round" stroke-linejoin="round" stroke="#FF9500" stroke-width="12" d="M370.75-299.25s8.194 1.29 12 6.25" fill="none" transform="rotate(2.069 -14168.827 26539.32)" style="display:block"/><path stroke-linecap="round" stroke-linejoin="round" stroke="#FF9500" stroke-width="12" d="M349-258.75s6.934 6.015 8 12.25" fill="none" transform="rotate(-1.678 19221.344 -32779.316)" style="display:block"/><g style="display:block"><path stroke-linecap="round" stroke-linejoin="round" stroke="#00BDFF" stroke-width="7" d="m1167.984 161.226 6.662-3.045m-1.161 13.487 5.785-2.931m-6.777 9.503c8.755-3.044 12.769 9.863 20.966.43" fill="none"/><path fill="#00BDFF" d="M1119.668 189.398c-2.101.415-3.773-1.748-2.844-3.677l2.577-5.354 6.096 7.882-5.83 1.15zm-4.137-9.017c-1.736-1.254-1.296-3.953.749-4.589l5.673-1.765-1.607 9.833-4.815-3.48zm24.26 14.67c-9.839 2.041-19.47-4.28-21.51-14.118-2.042-9.84 4.28-19.47 14.119-21.51 0 0 11.635-2.325 19.957-5.843 8.322-3.519 19.914-.905 24.432 8.07 4.518 8.974.543 19.674-8.07 24.43-8.614 4.756-28.928 8.971-28.928 8.971z"/><path fill="#FFF" d="M1139.154 186.867a6.173 6.173 0 0 1-7.688-4.136l-2.119-7.054a6.173 6.173 0 0 1 11.823-3.551l2.12 7.053a6.173 6.173 0 0 1-4.136 7.688z"/><path fill="#FFA3A3" d="M1133.991 177.052c.557.279.764.968.453 1.508l-.85 1.477c-.474.823-1.702.68-1.975-.23l-.673-2.24c-.273-.909.673-1.705 1.522-1.28l1.523.765z"/><path fill="#00729A" d="M1129.71 182.323a2.274 2.274 0 1 0-4.426-1.046 2.274 2.274 0 0 0 4.427 1.046zm-1.1-3.821a2.273 2.273 0 1 0-4.426-1.045 2.273 2.273 0 1 0 4.425 1.045z"/></g></g><g clip-path="url(#bJ)" style="display:block" transform="matrix(-1 0 0 1 1916 -23.5)"><g style="display:block"><path fill="#4CC5FF" d="M1605.146 801.232c2.599-5.518 9.178-7.884 14.696-5.286l20.906 9.848c5.518 2.598 7.885 9.176 5.286 14.694l-2.507 5.322c-5.264 10.771-12.82 8.581-25.585 4.592-12.179-4.68-20.622-11.398-16.083-21.937l3.287-7.233z"/><path fill="#1CB0F6" d="M1621.493 814.83c-9.182-4.041-12.78-10.491-10.583-15.568 3.436-7.943 14.868-27.014 22.7-35.633 5.215-5.74 24.382-18.251 45.297-27.253 9.24-3.975 19.952.29 23.93 9.53 3.977 9.24-.29 19.954-9.529 23.93-11.348 4.888-29.567 16.122-33.042 18.674-2.451 3.293-11.792 15.374-16.045 25.248-2.744 6.37-14.437 4.721-22.728 1.072z"/><path stroke-linecap="round" stroke="#FF4B4B" stroke-width="12.767" d="M1593.56 842.526c11.24.583 21.412-5.291 21.412-5.291" fill="none"/></g><g style="display:block"><path fill="#A46648" d="m1652.964 672.33 27.795 37.163c4.213 5.18 11.828 5.962 17.007 1.75 5.18-4.213 5.963-11.826 1.75-17.007l-32.182-32.368a8.888 8.888 0 1 0-14.37 10.462z"/><path stroke-linecap="round" stroke-linejoin="round" stroke="#A46648" stroke-width="7.277" d="m1644.687 663.206 9.409 3.503m-3.692-15.446 2.01 9.617m4.819-10.898-.017 11.497m6.934-7.302-2.224 6.794" fill="none"/></g><g style="display:block"><path fill="#3D3D3D" d="m1721.975 644.672 26.566-17.688c9.702-6.45 22.795-3.814 29.244 5.888l6.256 9.41c6.45 9.702 3.813 22.795-5.89 29.245l-8.414 5.594c-9.702 6.45-22.795 3.813-29.245-5.889l-18.517-26.56zm9.73-5.082-16.674 44.442-26.74-10.674c-9.735-4.155-14.259-15.417-10.104-25.152l4.03-9.443c4.155-9.735 15.416-14.258 25.15-10.103l24.337 10.93zm24.374 21.245c.686 10.563-51.36 13.936-52.045 3.373l-2.2-33.917c-.684-10.563 7.324-19.682 17.888-20.366l13.792-.894c10.564-.685 19.682 7.323 20.367 17.886l2.198 33.918z"/><path fill="#A46648" d="m1732.251 714.038-36.497-14.12c-8.16-3.157-12.733-11.857-10.706-20.369l5.666-23.795a14.638 14.638 0 0 1 11.17-10.63l28.015-5.85a19.867 19.867 0 0 1 18.144 5.436l10.733 13.918a26.795 26.795 0 0 1 3.696 26.225l-7.59 19.174c-3.483 9.016-13.616 13.499-22.63 10.011z"/><path fill="#FDB02A" d="m1761.11 688.291 1.362-3.438a26.795 26.795 0 0 0-3.696-26.225l-10.733-13.918a19.867 19.867 0 0 0-18.144-5.436l-14.545 3.038c11.292 3.3 32.805 13.086 45.757 45.98zm-45.756-45.979-13.47 2.813a14.638 14.638 0 0 0-11.17 10.63l-1.951 8.191c8.746-11.425 26.59-21.634 26.59-21.634zm.778-1.402c.198.705-.32 1.351-1.05 1.406-6.548.493-13.812-3.496-14.969-11.18-.108-.724.319-1.409 1.05-1.407 9.688.034 13.487 5.9 14.97 11.181zm-.667 1.351a1.102 1.102 0 0 1-1.405-1.05c-.071-4.193.903-12.213 11.18-14.97a1.106 1.106 0 0 1 1.406 1.05c.118 7.673-3.722 12.87-11.181 14.97z"/><path fill="#A46648" d="M1760.298 678.379a8.151 8.151 0 0 1-10.75 4.168 8.151 8.151 0 0 1-4.168-10.749 8.152 8.152 0 0 1 10.75-4.168 8.152 8.152 0 0 1 4.168 10.749z"/></g><g style="display:block"><path fill="#FFF" d="M1712.454 660.369c.45-3.926 4.087-7.138 7.98-7.049 3.893.089 6.461 3.445 5.634 7.362l-1.612 7.64c-.731 3.461-4.01 6.12-7.45 6.04-3.439-.08-6.355-1.689-5.957-5.157l1.405-8.836z"/><path fill="#A46648" d="M1709.977 672.522c1.745-2.548 11.853-5.55 15.99-4.569l-4.484 9.23c-6.263 1.112-11.506-4.661-11.506-4.661z"/><path stroke-linecap="round" stroke="#86401F" stroke-width="4" d="M1695.789 666.586c4.394-3.054 8.56.901 8.56.901" fill="none"/><path fill="#86401F" d="M1708.648 668.131c.1.017 1.858 3.476 1.63 4.795a2.425 2.425 0 0 1-4.78-.829c.23-1.32 3.051-3.983 3.15-3.966zm-.783 7.097-2.101.06a2.497 2.497 0 0 1-.14-4.991l2.101-.06a2.498 2.498 0 0 1 .14 4.991z"/><path fill="#A41414" d="M1723.005 679.13c-1.736 5.884-11.911 9.952-18.993 5.52-2.092-1.31-1.199-4.272 1.152-5.025 3.22-1.033 6.084-2.786 8.753-5.187 2.67-2.4 5.986-2.98 7.957-.482 1.031 1.308 1.758 3.048 1.131 5.173z"/><path stroke-linecap="round" stroke="#3D3D3D" stroke-width="6.095" d="m1720.47 659.997-.568 4.942" fill="none"/><path fill="#E64340" d="M1712.375 683.083c-1.307-2.387.357-5.815 3.718-7.655 2.205-1.207 4.59-1.43 6.34-.769.722 1.198 1.093 2.678.624 4.441-.964 3.625-4.597 5.455-6.23 6.108-1.961.054-3.66-.68-4.452-2.125z"/><path fill="#E7E7E7" d="M1718.022 676.31a5.596 5.596 0 0 1-9.349 1.855c1.884-.966 2.924-1.576 5.296-3.756 2.371-2.18 5.987-2.98 7.957-.481.273.346.52.721.726 1.125-.351.335-1.591 2.213-4.63 1.258z"/></g><path fill="#FDB02A" d="m749.545 173.4-6.236 3.947c-11.545 7.307-26.828 3.871-34.135-7.675l-3.946-6.236c-7.229-11.421-3.83-26.538 7.59-33.766 14.99-9.487 34.832-5.027 44.319 9.963 7.228 11.421 3.829 26.539-7.592 33.767zm-2.502-9.683-33.434-7.517 4.609-20.499c2.076-9.233 11.242-15.035 20.475-12.959 9.232 2.076 15.034 11.242 12.958 20.475l-4.608 20.5z" transform="rotate(1.08 -28967.901 52143.01)" style="display:block"/><path fill="#1CB0F6" d="M740.472 155.971c10.32 11.635 9.254 29.433-2.381 39.753s-29.433 9.254-39.753-2.381-9.254-29.433 2.381-39.753 29.433-9.254 39.753 2.381z" transform="rotate(1.08 -28994.415 52142.762)" style="display:block"/><g style="display:block"><path stroke-linecap="round" stroke-linejoin="round" stroke="#A46648" stroke-width="13" d="m1756.61 731.399 8.094-23.8m1.097 25.078 15.384-12.455" fill="none"/><path fill="#A46648" d="m1723.096 724.188 12.036 25.664 32.474-20.975s-30.076-14.756-31.708-15.213c-2.9-1.358-6.37-2.12-9.28-.432a8.586 8.586 0 0 0-3.522 10.956zm51.799 18.982v-.413c-.02-5.686-2.098-10.88-5.482-14.783-3.75-4.324-9.104-7.06-15.04-7.118-11.295-.11-20.006 9.493-19.966 21.407l.001.41c.04 11.916 8.813 21.895 20.108 22.003 11.294.108 20.417-9.52 20.379-21.506z"/><path stroke-linecap="round" stroke="#86401F" stroke-width="4" d="m1742.02 734.095 13.45-4.233c3.41-1.073 7.165.768 8.386 4.11 0 0 0 0 0 0 1.221 3.343-.554 6.924-3.965 7.997l-13.451 4.232" fill="none"/></g><g style="display:block"><path fill="#1CB0F6" d="M1693.065 769.342c-8.941.36-17.322-5.362-19.958-14.337-.986-3.353-2.268-7.393-3.959-11.531-6.28 4.569-12.227 10.385-18.164 15.68-8.21 7.322-20.8 6.603-28.122-1.607-7.321-8.21-6.603-20.803 1.607-28.124.349-.31 9.09-7.685 18.295-14.992 18.2-14.45 26.961-19.551 36.748-17.862a20.711 20.711 0 0 1 12.888 7.748c10.58 13.26 15.933 28.831 19.046 39.423 3.112 10.586-2.949 21.692-13.537 24.803-1.612.473-3.239.735-4.844.8z"/><path stroke-linecap="round" stroke-linejoin="round" stroke="#0395DB" stroke-width="4" d="m1652.376 755.748 16.266-13.945s5.26 21.931 12.994 24.498" fill="none"/><path fill="#5EC6FF" d="M1639.565 771.402c-3.59 3.17-12.953-1.572-20.914-10.59-7.962-9.017-11.506-18.897-7.917-22.066.926-.817 11.778-10.233 14.036-12.135 3.637-3.062 12.975 1.96 20.64 10.45 7.665 8.491 11.465 18.526 7.878 22.047-3.586 3.521-13.24 11.869-13.723 12.294z"/><path stroke-linecap="round" stroke="#33B4F7" stroke-width="4.078" d="M1615.91 740.75c4.132 1.324 9.286 4.978 13.88 10.197 4.597 5.22 7.568 10.795 8.36 15.062" fill="none"/><path stroke-linecap="round" stroke="#FF4B4B" stroke-width="13.049" d="M1604.783 742.206c3.356 10.686 11.63 19.03 11.63 19.03" fill="none"/></g></g><g clip-path="url(#bN)" style="display:block" transform="matrix(-1 0 0 1 1916 -23.5)"><path fill="#FFB7E3" d="M467.017-248.933s-21.285-1.263-52.276-3.165c-15.682-.962-21.741 12.598-21.142 21.885.599 9.287 9.345 23.196 24.422 18.787 30.521-8.926 62.293-17.748 62.293-17.748l-13.297-19.759z" transform="rotate(.66 -48432.642 84634.602)" style="display:block"/><g style="display:block"><path fill="#FFB7E3" d="M1389.403 316.26c-30.986-2.206-43-3.37-58.107-3.929-15.106-.558-26.226 17.948-23.68 33.833 2.561 15.998 18.578 28.199 33.396 24.663 14.82-3.536 20.623-5.388 51.202-13.86 15.07-4.176 17.571-13.619 17.44-21.123-.13-7.504-4.536-18.466-20.251-19.584z"/><path fill="#FF9BDE" d="M1352.033 345.536c-2.026 13.056-12.746 22.226-23.942 20.482-11.196-1.743-18.63-13.74-16.604-26.795 2.026-13.056 12.746-22.227 23.942-20.483 11.196 1.743 18.63 13.74 16.604 26.796z"/></g><path stroke-linecap="round" stroke-linejoin="round" stroke="#FF7AD5" stroke-width="29" d="M333.25-229.75c4-8.5 10.5-20.5 16.75-28.75" fill="none" transform="rotate(-9.34 4293.276 -5910.229)" style="display:block"/><path stroke-linecap="round" stroke-linejoin="round" stroke="#FF86D0" stroke-width="15" d="M502.881-191.052c.376-4.651-.544-10.655-2.324-15.564" fill="none" transform="rotate(-29.535 2067.138 -1770.139)" style="display:block"/><path fill="#FFB7E3" d="M477.637-216.167c-7.613 5.833-.003.004-.006.006 0 0-18.631 14.661-50.031 23.985-8.308 2.467-15.805 6.766-15.948 15.431-.142 8.665 6.764 15.82 15.43 15.948 28.668.422 61.793-23.578 70.09-30.808 7.129-6.212 7.901-15.269 2.504-22.049-5.394-6.777-14.426-8.346-22.039-2.513z" transform="rotate(.466 -69096.4 120030.973)" style="display:block"/><path fill="#FFB7E3" d="M457.463-227.353c-11.621 5.879-32.272 15.702-43.279 41.145-11.007 25.443 20.779 26.539 27.111 14.999 7.705-14.041 24.272-24.118 27.134-26.05 17.148-11.237 6.297-41.165-10.961-30.097" transform="rotate(.437 -73757.256 128014.793)" style="display:block"/><path fill="#FFB3E6" d="M528.609-252.517c-1.324-2.088 4.65-9.711 4.65-9.711l14.956 10.268a12.758 12.758 0 0 0 7.223 2.241l22.195.002c4.776 0 7.827 5.094 5.572 9.305l-2.776 5.185a32.342 32.342 0 0 0-3.439 10.258c-.964 6.153-7.198 9.99-13.126 8.079l-5.291-1.706a42.078 42.078 0 0 1-26.151-24.402l-3.813-9.519z" transform="rotate(-.284 115876.903 -196600.604)" style="display:block"/><g style="display:block"><path fill="#FFB7E3" d="M1468.761 301.8c17.953 13.785 21.33 39.514 7.544 57.467-6.676 8.695-19.55 15.536-32.677 12.747-14.066-2.989-23.34-15.143-29.503-25.056-3.68-5.918-6.15-11.182-7.482-17.88-1.332-6.699.2-14.308 4.652-19.733 14.358-17.5 39.514-21.331 57.466-7.545z"/><path fill="#FF86D0" d="M1484.512 339.03a41.1 41.1 0 0 0 .254-5.662l-7.096-15.556-19.223-21.786a40.495 40.495 0 0 0-3.851-1.259l-5.995-1.163c-.023-.003-.045-.007-.068-.009-8.038 7.493-9.305 21.212-2.015 31.587 8.578 12.208 22.027 18.833 37.994 13.848z"/><path fill="#FFB3E6" d="M1459.655 330.848a.666.666 0 0 1 .978-.037l2.768 2.778a.666.666 0 0 1 .033.906l-4.324 5.005a.666.666 0 0 1-.94.067l-2.94-2.542a.667.667 0 0 1-.07-.939l4.495-5.238zm-13.19-22.752a.666.666 0 0 1 .899.388l1.305 3.698a.666.666 0 0 1-.36.832l-6.056 2.659a.666.666 0 0 1-.878-.343l-1.562-3.56a.667.667 0 0 1 .341-.877l6.311-2.797z"/><path fill="#1CB0F6" d="M1456.9 288.284c27.383-2.408 40.479 20.523 33.603 40.072l-.88 2.5c-3.058 8.696-22.764 12.447-35.748-5.34-15.153-18.968-7.264-35.89 3.024-37.232z"/></g><path stroke-linecap="round" stroke-linejoin="round" stroke="#1CB0F6" stroke-width="21" d="M485.124-355.496s3.924 26.985 4.65 39.479c.737 12.67-.26 36.014-.26 36.014" fill="none" transform="rotate(.324 -99603.622 172279.982)" style="display:block"/><path stroke-linecap="round" stroke="#1CB0F6" stroke-width="21" d="M510.5-244.5s25.322 1.79 38.005 1.948c15.166.188 45.49-.913 45.49-.913" fill="none" transform="rotate(.324 -99603.622 172279.982)" style="display:block"/><path fill="#E18E70" d="M495.071-354.738c-6.063 6.951-16.614 7.671-23.566 1.608-6.952-6.064-7.672-16.615-1.609-23.566 6.064-6.952 16.615-7.673 23.567-1.609 6.952 6.064 7.671 16.615 1.608 23.567z" transform="rotate(.324 -99602.664 172313.367)" style="display:block"/><path fill="#E18E70" d="M592.492-232.902c-7.193-7.197-7.191-18.862.006-26.057 7.198-7.194 18.865-7.191 26.058.006 7.194 7.198 7.191 18.864-.007 26.058-7.198 7.194-18.862 7.19-26.057-.007z" transform="rotate(.324 -99613.54 172274.714)" style="display:block"/><path fill="#FFB3E6" d="M606.933-297.91c-9.289 35.122-45.292 56.063-80.414 46.774-35.122-9.29-56.063-45.292-46.774-80.414 9.289-35.122 45.292-56.063 80.414-46.774 35.122 9.289 56.063 45.292 46.774 80.414z" transform="rotate(.811 -39319.166 68732.204)" style="display:block"/><g style="display:block"><path fill="#E18E70" d="M1524.498 238.384c19.861 16.522 24.292 43.956 9.896 61.278-14.396 17.323-38.257 19.024-58.119 2.502-19.862-16.522-28.202-45.01-13.805-62.332 14.396-17.322 42.167-17.97 62.028-1.448z"/><path fill="#A70000" d="M1476.96 296.739c-1.017 3.659 2.95 11.284 18.118 15.367 15.167 4.083 17.895-5.345 18.488-7.479.593-2.135 1.765-11.436-5.717-13.45-5.864-1.579-13.176 3.227-20.457 1.267-7.281-1.96-9.415.635-10.432 4.295z"/><path fill="#FFF" d="M1507.85 291.178c-2.774-.747-5.872-.065-9.137.654-3.638.8-7.485 1.647-11.321.614-3.373-.908-5.64-.839-7.205-.139 1.883 2.13 5.131 4.181 10.38 5.619 9.684 2.647 17.454-.016 22.05-3.028-.87-1.707-2.434-3.092-4.767-3.72z"/><path fill="#9E4D31" d="M1488.243 278.505c.143.097.376 6.802-.807 8.594-1.182 1.79-3.779 2.13-5.66.847-1.88-1.284-2.397-3.672-1.182-5.412 1.182-1.747 7.507-4.126 7.649-4.029zm-16.063-19.473a1.538 1.538 0 0 1-1.26-1.796 1.588 1.588 0 0 1 1.81-1.292c6.07.999 9.727 4.45 11.77 8.335 2.008 3.822 2.458 8.048 2.26 10.819a1.59 1.59 0 0 1-1.666 1.474 1.534 1.534 0 0 1-1.442-1.65c.165-2.31-.226-5.936-1.915-9.15-1.655-3.149-4.556-5.917-9.557-6.74zm40.822 26.649c.498.647 1.47.805 2.167.354.698-.452.86-1.344.361-1.992-3.794-4.926-8.71-6.825-13.29-7.144-4.511-.315-8.665.896-11.158 2.129-.753.372-1.028 1.238-.616 1.935.412.696 1.355.96 2.109.587 2.072-1.025 5.642-2.066 9.461-1.8 3.75.262 7.768 1.78 10.966 5.93z"/><path fill="#3B3B3B" d="M1552.697 267.822c.357-1.21-1.106-2.287-2.325-2.019-1.623.401-3.77.362-6.468-.873-4.744-2.161-9.784-29.796-39.42-37.886-9.687-2.679-25.104-1.369-25.791 2.204-2.602 13.758 2.721 41.162 35.286 50.029 28.375 7.757 35.929-3.379 38.718-11.455z"/></g></g><g clip-path="url(#bY)" style="display:block" transform="matrix(-1 0 0 1 1916 -23.5)"><g mask="url(#bZ)" style="display:block"><g clip-path="url(#ca)"><path stroke-linecap="round" stroke-linejoin="round" stroke="#3D3D3D" stroke-width="24" d="M541.75 368c5.75 8.75 22.071 22.16 22.071 22.16s10.171 1.204 17.266-5.709" fill="none" transform="rotate(-6.001 6125.918 -8633.348)" style="display:block"/><path fill="#3D3D3D" d="M515.631 280.06c17.811 0 32.25 14.439 32.25 32.25s-14.014 31.792-31.825 31.792-33.434-13.935-33.434-31.746 15.198-32.296 33.009-32.296zm37.063 10.191c26.438-4.35 49.58 5.502 52.209 28.34 2.629 22.838-19.849 32.746-42.826 33.493-51.772 1.682-70.509-51.776-9.383-61.833z" transform="rotate(-6 6146.779 -8594.894)" style="display:block"/><path fill="#DB8D74" d="M521.5 303c-16.5 11-42 12.5-66 13.5s-53.834 22.53-51 52c2.5 26 27.5 43 54.5 43.5 30.012.556 61-2.5 100.5-24s36.5-55.5 23.5-77-45-19-61.5-8z" transform="rotate(-6 6207.043 -8631.536)" style="display:block"/><g mask="url(#cb)" style="display:block"><path fill="#FFAADE" d="M1468.486 843.802c12.187-5.889-141.545-21.056-120.62 86.501 24.057 123.663 217.48 8.157 183.98 18.872-18.24 5.835-37.063 6.126-52.224.37a52.71 52.71 0 0 1-8.738-4.253 46.815 46.815 0 0 1-7.354-5.522c-7.586-6.98-14.101-17.327-17.956-29.34-7.886-24.578 5.074-58.008 22.912-66.628zm-24.563 10.378s-110.177-10.375-96.712 74.684c13.465 85.058 144.2 37.92 144.2 37.92s-66.13-4.529-75.99-46.788c-9.684-41.504 28.502-65.816 28.502-65.816zm-33.247 26.333-3.358 6.092 11.053-1.402 2.991-6.249-10.686 1.56zm17.723-22.547s-93.112 5.285-78.152 71.081c14.96 65.797 119.856 41.101 119.856 41.101s-52.298-6.784-63.227-48.902c-9.475-36.513 21.523-63.28 21.523-63.28zm-13.6 59.343-10.334 3.153 2.727 8.444 9.888-3.846-2.282-7.751z"/><path fill="#A56641" d="M1443.923 854.18s-110.177-10.375-96.712 74.684c13.465 85.058 144.2 37.92 144.2 37.92s-66.13-4.529-75.99-46.788c-9.684-41.504 28.502-65.816 28.502-65.816z"/><path fill="#2CE69B" d="m1410.676 880.513-3.358 6.092 11.053-1.402 2.991-6.249-10.686 1.56zm17.723-22.547s-93.112 5.285-78.152 71.081c14.96 65.797 119.856 41.101 119.856 41.101s-52.298-6.784-63.227-48.902c-9.475-36.513 21.523-63.28 21.523-63.28zm-13.6 59.343-10.334 3.153 2.727 8.444 9.888-3.846-2.282-7.751z"/></g><g mask="url(#cc)" style="display:block"><path fill="#3D3D3D" d="M1472.102 805.774c-23.24 3.7-30.022 25.288-29.279 39.527.744 14.25 4.38 29.705 23.967 36.696 20.559 7.337 44.65-5.699 45.989-36.005.966-21.868-17.437-43.918-40.677-40.218z"/></g><path fill="#3D3D3D" d="M557.75 265.5c16.983 0 30.75 13.711 30.75 30.625s-13.767 30.625-30.75 30.625S527 313.039 527 296.125s13.767-30.625 30.75-30.625z" transform="rotate(-6 6133.493 -8523.843)" style="display:block"/><path fill="#DB8D74" d="M512.021 320.5c6.639 0 12.02 5.382 12.02 12.021 0 6.639-5.381 12.02-12.02 12.02-6.639 0-12.021-5.381-12.021-12.02 0-6.639 5.382-12.021 12.021-12.021z" transform="rotate(-6 6925.219 -9840.017) scale(.75)" style="display:block"/><g style="display:block"><path fill="#B82C2C" d="M1498.31 902.702a2.511 2.511 0 0 1 3.552.032l21.38 21.771c.972.99.959 2.58-.031 3.553l-.21.205c-7.002 6.877-18.253 6.774-25.129-.227-6.876-7.003-6.774-18.253.228-25.13l.21-.204z"/><path fill="#FD5050" d="M1507.829 933.145a17.69 17.69 0 0 1-9.957-5.11 17.713 17.713 0 0 1-5.091-12.376 17.65 17.65 0 0 1 9.97 5.103 17.668 17.668 0 0 1 5.078 12.383z" opacity=".8"/></g><path stroke-linecap="round" stroke-linejoin="round" stroke="#3D3D3D" stroke-width="24" d="M536.818 374.269c8.057 4.734 26.951 16.388 26.951 16.388l12.016-2.71" fill="none" transform="rotate(-6.001 6125.918 -8633.348)" style="display:block"/><g style="display:block"><path fill="#FFF" d="M1546.976 907.605s4.684-5.066 8.91-9.991c2.41-7.974 3.334-14.691 2.907-22.24-3.543 1.251-5.795 8.749-6.798 12.664l-5.019 19.567zm-3.204-29.589c-4.976-2.309-11.18.157-12.975 5.613l-4.452 13.391c10.947 2.443 16.06 9.047 16.06 9.047l4.86-16.1c1.235-3.751.401-10.267-3.493-11.95z"/><path fill="#3D3D3D" d="M1553.674 882.871c.737-2.761 2.425-4.811 3.772-4.58 1.348.232 1.844 2.658 1.107 5.42l-.464 1.739c-.736 2.761-2.425 4.811-3.773 4.58-1.347-.232-1.844-2.659-1.107-5.42l.465-1.739zm-14.279 2.216c.61-2.758 2.677-4.685 4.618-4.304 1.941.38 3.02 2.925 2.41 5.683l-.385 1.736c-.61 2.758-2.677 4.686-4.618 4.306-1.941-.381-3.02-2.926-2.41-5.683l.385-1.738z"/></g><path stroke-linecap="round" stroke-linejoin="round" stroke="#3D3D3D" stroke-width="12" d="M568.75 333.5s7.5-2 11.5 1m17.608 3.473s7.344 2.513 8.997 7.232" fill="none" transform="rotate(-13 3371.808 -3626.748)" style="display:block"/><path fill="#DB8D74" d="M571.295 372.25c4.029 0 7.295 3.217 7.295 7.186s-3.266 7.186-7.295 7.186-7.295-3.217-7.295-7.186 3.266-7.186 7.295-7.186z" transform="rotate(-6 5787.619 -8069.133) scale(1.1)" style="display:block"/></g></g><g style="display:block"><path fill="#DB8D74" d="M1426.482 950.142c-7.733 3.358-18.58 7.433-15.632 17.87 2.647 9.368 14.428 8.414 22.007 4.922 3.967 4.669 9.756 1.055 7.452-3.811-3.858-8.147-7.33-21.802-13.827-18.98z"/><path stroke-linecap="round" stroke-linejoin="round" stroke="#FFAADE" stroke-width="25" d="m1433.348 928.641-1.712 27.719" fill="none"/></g></g></g></svg>